<?xml version="1.0" standalone="no"?>
<!DOCTYPE svg PUBLIC "-//W3C//DTD SVG 20010904//EN"
 "http://www.w3.org/TR/2001/REC-SVG-20010904/DTD/svg10.dtd">
<svg version="1.0" xmlns="http://www.w3.org/2000/svg"
 width="1024.000000pt" height="1024.000000pt" viewBox="0 0 1024.000000 1024.000000"
 preserveAspectRatio="xMidYMid meet">

<g transform="translate(0.000000,1024.000000) scale(0.100000,-0.100000)"
fill="#000000" stroke="none">
<path d="M5734 9723 c17 -75 18 -141 2 -195 -35 -122 -112 -194 -326 -303
-150 -77 -229 -162 -230 -247 0 -36 -16 -36 -35 2 -25 48 -19 117 15 177 16
28 40 59 52 67 34 24 13 32 -28 10 -81 -43 -134 -142 -134 -250 0 -74 12 -119
57 -213 30 -66 49 -162 40 -211 -4 -20 -20 -51 -35 -69 -23 -28 -36 -34 -79
-38 -46 -5 -54 -2 -78 21 -23 23 -26 33 -21 64 3 20 9 63 12 96 l7 58 -30 -15
c-58 -31 -110 -92 -121 -144 -19 -87 -29 -103 -78 -124 -39 -18 -50 -19 -75
-8 -36 14 -60 57 -52 90 4 13 28 59 55 103 62 103 72 139 73 261 0 84 -4 107
-23 146 -32 66 -88 103 -152 101 -80 -2 -190 -62 -203 -112 -4 -16 3 -13 35
15 50 42 118 70 152 61 81 -20 77 -153 -8 -269 -11 -16 -71 -65 -132 -108
-182 -129 -211 -173 -221 -346 l-6 -108 -61 28 c-108 49 -110 51 -126 95 -23
67 6 170 80 282 34 52 70 147 63 167 -8 19 -20 7 -41 -40 -28 -63 -74 -103
-181 -157 -53 -26 -108 -61 -123 -77 -44 -46 -68 -110 -68 -184 0 -57 5 -77
45 -158 45 -93 54 -136 35 -172 -14 -25 8 -25 83 0 30 11 57 18 59 16 2 -2 3
14 3 36 0 28 -5 43 -17 50 -10 6 -18 18 -17 27 0 14 2 14 8 -2 7 -17 8 -18 14
-3 4 10 0 20 -11 26 -9 5 -14 13 -10 16 8 8 68 -25 68 -37 0 -4 6 -8 14 -8 8
0 18 -9 21 -20 3 -11 13 -20 21 -20 8 0 14 -7 14 -15 0 -13 12 -17 36 -14 4 0
10 -3 13 -8 3 -6 57 -1 129 10 142 24 134 12 101 157 -20 89 -21 92 -3 156 14
52 27 76 66 117 41 43 50 49 59 37 9 -13 10 -12 5 2 -3 11 2 21 14 28 15 8 18
7 15 -7 -2 -10 -10 -31 -18 -47 -9 -16 -19 -46 -22 -68 -4 -21 -11 -35 -17
-32 -15 10 -7 -97 10 -126 25 -42 74 -78 121 -90 53 -13 71 -24 95 -62 40 -62
61 -24 51 92 -4 44 -3 80 2 83 5 3 32 9 61 13 48 6 51 5 57 -17 5 -22 7 -57 5
-117 0 -13 7 -30 15 -38 13 -14 15 -12 17 13 4 77 25 112 52 86 12 -12 146
-11 139 0 -4 6 8 8 29 4 21 -3 41 -1 48 6 10 9 11 9 6 0 -5 -8 1 -9 24 0 16 6
25 14 19 18 -6 3 2 9 18 13 15 4 49 30 75 57 51 55 73 120 61 180 -4 19 -2 30
3 26 9 -5 7 22 -10 216 -2 21 0 35 5 30 19 -20 89 -201 95 -247 6 -38 9 -46
15 -31 14 36 9 85 -17 188 -30 116 -29 206 2 270 24 50 33 47 28 -10 -7 -73
26 -148 101 -232 35 -39 69 -79 74 -90 22 -41 28 -131 15 -214 -23 -138 -7
-182 87 -230 90 -47 162 -31 210 47 l17 29 12 -42 c13 -49 30 -54 30 -8 0 46
12 59 51 56 44 -3 101 10 93 22 -3 5 2 9 10 9 20 0 59 38 73 72 7 15 15 50 19
77 4 28 10 48 15 46 4 -3 9 3 11 12 3 14 9 10 23 -17 11 -19 20 -44 21 -55 0
-11 2 -33 3 -50 l2 -30 33 39 c40 46 51 37 41 -37 -4 -34 -21 -75 -48 -121
-55 -93 -62 -159 -21 -204 24 -26 47 -35 133 -56 120 -29 112 -33 157 66 15
32 30 55 34 53 4 -3 13 2 20 10 7 8 19 15 27 15 8 0 11 5 8 11 -4 6 0 9 11 7
12 -2 18 2 16 11 -2 8 3 11 13 8 8 -4 15 -2 15 2 0 9 30 24 37 18 2 -2 -8 -21
-22 -41 -14 -21 -22 -42 -19 -48 4 -6 3 -8 -3 -5 -22 14 -64 -112 -46 -139 13
-18 99 -54 137 -56 20 -2 36 -6 36 -9 0 -3 6 -6 13 -6 7 0 25 -3 41 -7 18 -4
25 -3 21 4 -3 5 2 13 12 17 25 10 43 29 43 47 0 8 9 18 20 21 11 3 20 11 20
17 0 5 11 19 25 29 15 13 22 26 19 37 -4 12 -3 13 3 4 8 -10 15 -9 34 6 13 11
60 38 104 61 101 54 155 107 155 155 0 21 6 36 15 40 12 4 15 -3 15 -37 0 -50
-28 -113 -63 -146 -15 -13 -24 -28 -21 -32 3 -5 0 -9 -6 -9 -6 0 -8 -4 -5 -10
3 -5 1 -10 -6 -10 -15 0 -59 -47 -59 -63 0 -7 4 -6 10 3 7 10 10 11 10 2 0 -7
-7 -15 -15 -18 -19 -8 -47 -67 -47 -99 0 -13 8 -40 19 -61 19 -38 68 -63 147
-78 20 -4 36 -13 36 -20 0 -7 12 -18 26 -25 24 -10 30 -9 51 11 53 49 63 99
43 210 -8 44 -8 65 4 99 l15 44 -25 -30 c-13 -16 -27 -46 -30 -65 -19 -109
-41 -142 -89 -132 -34 6 -55 38 -55 83 0 28 11 52 46 99 73 100 88 136 92 220
7 145 -37 221 -185 321 -51 34 -129 99 -173 144 -75 77 -80 81 -80 54 0 -52
21 -82 115 -173 101 -98 125 -137 125 -210 0 -95 -42 -140 -172 -186 -106 -38
-146 -72 -167 -140 -25 -84 -101 -120 -137 -65 -18 28 -13 53 22 94 54 64 69
117 69 241 0 122 -10 166 -64 280 -30 64 -101 140 -131 140 -27 0 -25 -6 10
-46 73 -83 96 -185 66 -288 -21 -72 -78 -136 -151 -171 -68 -32 -71 -31 -46 4
34 48 45 108 32 172 -10 46 -23 69 -67 120 -89 102 -100 138 -80 253 12 65 -7
59 -52 -16 -23 -39 -33 -69 -34 -99 l0 -42 -29 54 c-16 30 -54 84 -83 121
-100 124 -108 190 -32 275 57 64 66 83 66 141 0 65 -28 105 -108 159 -35 22
-86 60 -114 84 -28 24 -47 36 -42 28 5 -8 26 -40 48 -71 36 -54 38 -61 34
-116 -4 -55 -9 -66 -72 -151 -69 -93 -96 -154 -96 -222 0 -68 37 -163 95 -242
30 -41 59 -87 65 -102 21 -54 -13 -115 -70 -130 -32 -8 -86 27 -112 71 -10 17
-27 75 -38 130 -23 113 -36 150 -55 158 -11 4 -12 0 -5 -20 17 -43 11 -106
-12 -144 l-22 -35 -6 35 c-9 48 -31 88 -83 149 -58 67 -75 123 -53 175 9 21
67 90 129 154 62 65 129 144 148 177 37 65 94 203 87 211 -13 12 -37 -12 -71
-69 -45 -77 -51 -83 -111 -132 l-49 -39 29 54 c24 46 30 70 32 141 5 102 -5
127 -81 207 -45 49 -49 51 -43 25z m404 -905 c-2 -7 2 -12 9 -13 20 0 34 -21
27 -38 -3 -9 -9 -17 -13 -17 -10 1 -40 67 -34 74 10 9 13 7 11 -6z m55 -82 c4
-10 1 -13 -9 -9 -15 6 -19 23 -5 23 5 0 11 -7 14 -14z m-360 -376 c3 -43 -17
-47 -46 -8 -24 32 -27 100 -7 138 13 25 14 24 32 -35 10 -33 19 -76 21 -95z
m657 -165 c-42 -89 -62 -103 -81 -61 -13 28 -4 49 48 112 18 23 41 63 51 90
l17 49 3 -52 c3 -44 -3 -66 -38 -138z"/>
<path d="M6150 8791 c0 -5 5 -13 10 -16 6 -3 10 -2 10 4 0 5 -4 13 -10 16 -5
3 -10 2 -10 -4z"/>
<path d="M3280 8343 c0 -4 11 -20 24 -37 39 -52 56 -93 56 -135 0 -51 -11 -77
-76 -176 -62 -94 -75 -131 -47 -137 10 -2 23 2 28 8 6 7 25 15 44 18 33 5 51
19 51 42 0 6 7 17 15 24 8 7 12 17 8 24 -3 6 -3 8 2 4 4 -4 14 -3 22 4 14 11
20 6 55 -46 5 -7 25 -4 61 8 54 18 54 19 41 45 -8 14 -14 53 -14 87 0 104 -49
178 -155 231 -44 23 -115 45 -115 36z"/>
<path d="M2880 8070 l-25 -8 26 -1 c15 -1 37 -9 49 -19 19 -16 22 -24 16 -55
-4 -20 -19 -51 -34 -69 -27 -33 -17 -29 37 17 l25 20 -18 -29 c-10 -16 -13
-25 -7 -22 6 4 11 3 11 -3 0 -5 -5 -13 -11 -16 -6 -4 -8 -13 -5 -21 3 -8 2
-14 -2 -14 -4 0 -8 -27 -8 -60 -1 -33 1 -58 5 -56 12 7 76 34 93 39 14 5 15
10 5 36 -9 24 -8 45 7 105 21 84 17 119 -19 142 -27 18 -107 25 -145 14z"/>
<path d="M4655 8035 c-463 -40 -870 -110 -1210 -210 -566 -165 -1098 -398
-1516 -662 l-117 -73 -6 -52 c-39 -341 -57 -1032 -36 -1389 15 -256 60 -605
102 -789 25 -114 102 -382 132 -461 80 -213 118 -304 150 -357 25 -40 34 -64
30 -77 -4 -11 -3 -16 2 -12 9 5 11 -1 15 -58 1 -14 5 -25 10 -25 4 0 14 -12
22 -27 7 -16 19 -27 26 -25 7 1 9 -2 5 -9 -5 -8 -20 3 -45 32 -38 43 -50 67
-27 53 7 -4 8 -3 4 5 -4 6 -11 9 -16 6 -22 -14 -250 365 -310 515 -91 227
-176 525 -211 735 l-23 140 -20 -75 c-27 -107 -29 -445 -3 -610 71 -440 213
-846 415 -1179 245 -405 678 -840 1267 -1274 481 -353 1026 -690 1555 -960
l274 -141 235 120 c346 175 619 326 821 454 540 340 839 552 1226 871 l92 76
89 8 c317 25 576 131 803 325 180 156 333 418 391 670 26 112 36 357 19 471
-16 113 -80 304 -136 408 -79 147 -195 291 -326 407 -52 46 -55 50 -32 52 34
3 64 20 64 36 0 22 -73 70 -204 135 -137 67 -236 102 -381 133 -134 29 -394
31 -539 5 -98 -18 -120 -17 -98 5 18 18 15 28 -9 28 -16 0 -19 4 -14 20 4 13
1 22 -10 26 -10 4 -13 13 -9 26 4 14 0 21 -15 25 -22 6 -29 23 -10 23 8 0 8 5
-1 15 -7 8 -19 15 -26 15 -10 0 -13 7 -8 25 4 18 1 27 -11 31 -10 4 -14 13
-10 22 4 10 -3 23 -17 34 -13 10 -17 18 -10 18 15 0 16 20 1 20 -6 0 -17 7
-25 15 -9 8 -12 15 -8 15 3 0 1 7 -6 15 -16 19 -7 31 29 38 67 14 102 93 81
185 -13 60 -54 115 -81 110 -10 -2 -40 -30 -66 -62 -27 -33 -53 -61 -58 -63
-6 -2 -19 10 -28 27 -18 30 -18 30 11 67 67 87 101 229 86 367 -22 197 -97
274 -252 254 -77 -10 -168 -39 -229 -74 -50 -29 -57 -30 -43 -5 16 30 12 76
-7 93 -25 21 -64 29 -80 16 -17 -14 -17 21 0 42 33 40 45 43 69 16 17 -19 45
-31 103 -46 133 -33 185 -23 185 35 0 30 -30 51 -85 61 -61 10 -67 19 -59 81
13 108 -11 155 -86 163 -32 3 -47 9 -42 16 11 16 86 -3 116 -31 23 -21 26 -32
26 -87 0 -95 4 -103 65 -122 57 -18 85 -48 85 -90 0 -21 6 -26 38 -31 95 -16
162 -63 197 -139 12 -26 49 -151 61 -206 1 -8 5 -27 9 -43 5 -26 6 -27 29 -12
18 12 26 13 32 4 4 -8 3 -9 -4 -5 -29 18 -8 -4 26 -28 47 -32 70 -33 132 -1
32 16 51 21 56 14 3 -6 -14 -41 -40 -78 -49 -72 -55 -98 -31 -135 16 -24 32
-26 111 -12 27 5 44 4 49 -3 3 -6 11 -9 16 -5 6 4 6 11 -1 19 -8 10 -8 15 1
21 7 4 9 3 5 -4 -3 -6 -2 -13 4 -17 6 -4 7 -12 3 -18 -4 -7 -9 -30 -10 -52 -2
-22 -6 -66 -9 -98 -5 -52 -3 -61 21 -93 28 -36 52 -50 108 -59 18 -3 47 -10
66 -15 19 -5 39 -6 44 -3 6 3 7 1 3 -5 -4 -7 3 -16 17 -23 16 -7 36 -35 56
-80 32 -70 66 -104 128 -128 17 -7 37 -10 44 -5 7 4 10 3 5 -4 -3 -6 -2 -13 4
-17 5 -3 10 -17 10 -31 0 -27 35 -68 50 -59 6 4 10 1 10 -5 0 -7 7 -10 15 -6
8 3 15 1 15 -4 0 -4 15 -11 33 -15 17 -4 43 -14 56 -22 18 -12 22 -12 16 -2
-3 8 0 6 8 -3 8 -10 17 -15 20 -12 3 3 15 -4 26 -15 12 -12 63 -41 114 -66
112 -55 161 -103 151 -150 -4 -16 -15 -36 -25 -43 -16 -11 -14 -16 29 -62 33
-36 49 -46 54 -36 11 19 66 334 82 471 31 257 40 456 39 850 0 375 -22 929
-37 953 -31 50 -624 378 -838 463 -29 11 -87 34 -128 51 -617 245 -1188 380
-1855 438 -205 18 -871 21 -1060 5z m1085 -140 c228 -20 534 -65 740 -109 642
-135 1369 -423 1851 -732 l66 -43 7 -83 c23 -308 30 -503 30 -873 0 -359 -3
-452 -22 -639 -26 -251 -41 -356 -53 -356 -5 0 -9 5 -9 11 0 5 -4 7 -10 4 -5
-3 -10 -1 -10 5 0 6 -4 9 -9 5 -14 -8 -40 22 -35 42 2 10 10 88 19 173 54 551
56 992 9 1606 l-5 72 -102 60 c-348 206 -697 369 -1057 493 -142 49 -492 148
-617 174 -263 55 -643 108 -913 126 -255 18 -889 6 -1110 -20 -486 -58 -744
-110 -1200 -246 -321 -95 -822 -321 -1170 -527 -41 -24 -82 -47 -91 -50 -21
-8 -26 -45 -40 -313 -16 -307 -13 -786 5 -995 24 -268 24 -267 55 -279 36 -14
62 -16 87 -8 19 7 21 12 13 51 -4 23 -19 67 -33 97 -14 30 -28 78 -32 106 -6
50 -6 51 32 77 21 14 34 26 29 26 -6 1 1 7 15 14 14 8 28 12 32 10 9 -6 109
22 170 48 48 20 51 25 63 88 14 76 36 117 73 137 21 11 50 24 66 27 16 4 58
20 92 37 59 27 64 32 77 76 l14 48 19 -32 c31 -52 60 -63 169 -63 112 0 169
14 195 47 12 16 20 19 23 11 3 -9 9 -7 20 7 15 20 16 19 50 -17 29 -31 50 -43
70 -37 1 0 14 -4 29 -10 15 -6 73 -15 129 -21 56 -5 108 -15 116 -21 7 -6 13
-8 13 -5 0 4 7 0 16 -9 9 -9 23 -14 31 -11 9 4 11 2 7 -6 -5 -8 -2 -9 10 -5 9
4 15 3 12 -1 -3 -4 18 -20 45 -35 27 -14 47 -22 44 -17 -11 17 7 11 22 -7 8
-10 12 -13 9 -6 -4 6 -1 15 5 19 7 4 9 3 6 -2 -11 -18 10 -37 29 -29 29 13 48
12 67 -4 9 -8 17 -10 17 -6 0 5 14 -4 32 -21 18 -16 27 -22 20 -13 -6 9 -8 20
-4 24 4 5 2 5 -5 1 -6 -3 -18 3 -26 15 -10 14 -16 16 -19 8 -3 -9 -6 -8 -10 3
-8 19 12 19 34 0 12 -9 15 -9 15 3 0 8 -4 12 -9 9 -14 -9 -9 8 8 27 9 10 22
15 30 12 8 -3 14 -2 12 3 -5 15 35 134 43 129 4 -3 9 1 12 7 7 19 38 -23 33
-45 -3 -10 0 -14 7 -10 6 4 8 0 5 -9 -4 -8 0 -15 8 -15 7 0 11 3 9 7 -2 3 5 6
15 6 10 0 18 -4 17 -9 -1 -5 4 -12 12 -15 10 -3 12 0 8 11 -5 13 -2 15 18 7
14 -5 25 -6 25 -2 0 4 15 8 33 9 17 1 44 4 60 6 26 5 37 -6 17 -18 -5 -3 -10
-11 -10 -16 0 -6 5 -7 10 -4 6 3 10 0 11 -7 0 -10 2 -10 6 0 2 6 9 10 13 7 5
-3 3 7 -5 22 -10 19 -11 31 -4 40 6 6 7 18 3 24 -4 8 -3 9 4 5 7 -4 12 -2 12
3 0 6 5 11 10 11 6 0 10 -8 8 -17 -2 -12 3 -17 14 -15 13 2 16 -2 11 -14 -4
-12 -3 -15 5 -10 7 4 12 21 12 37 0 17 -4 28 -8 25 -4 -2 -14 0 -22 5 -12 8
-11 9 5 7 14 -2 20 2 18 15 0 12 4 16 13 13 7 -3 16 -1 19 4 4 6 22 10 41 10
24 0 33 4 28 12 -4 6 -3 8 4 4 6 -3 13 -2 17 4 3 5 10 10 16 10 5 0 0 -9 -11
-20 -12 -12 -18 -24 -16 -29 7 -10 56 -2 56 9 0 5 -10 6 -22 2 -14 -3 -19 -2
-14 7 4 6 11 9 16 6 13 -8 19 22 7 34 -9 10 -9 12 3 9 9 -2 14 3 12 12 -3 11
2 10 17 -4 21 -19 29 -10 11 12 -5 7 -3 6 5 -1 9 -7 17 -23 19 -34 4 -17 0
-21 -14 -18 -13 3 -17 -1 -13 -12 5 -12 7 -12 14 -1 5 7 9 9 9 4 0 -5 9 -1 20
9 20 18 28 41 11 31 -18 -11 -29 20 -24 67 5 39 12 53 38 72 17 14 46 28 64
31 29 6 37 2 71 -35 21 -22 45 -41 54 -41 10 0 15 -4 12 -9 -6 -8 68 4 85 15
5 2 18 22 30 44 13 22 27 40 31 40 5 0 6 5 2 11 -5 9 6 10 39 5 25 -4 48 -3
51 2 3 5 18 7 34 4 22 -3 33 2 44 16 23 34 42 31 48 -8 3 -25 13 -38 32 -47
27 -14 62 -8 52 8 -3 5 1 9 9 9 8 0 40 12 71 26 99 45 160 36 258 -39 l44 -34
-1 61 c-1 34 2 66 6 72 6 8 -17 13 -79 17 -149 10 -206 40 -235 125 -12 35
-12 42 -1 42 8 0 14 -7 14 -15 0 -32 40 -92 68 -104 16 -7 78 -16 138 -20 63
-5 109 -12 112 -19 2 -6 10 -8 19 -5 14 5 13 1 -3 -26 l-19 -33 30 -24 30 -25
-28 11 c-16 5 -30 10 -32 10 -6 0 8 -45 17 -57 7 -8 3 -24 -12 -48 l-22 -36
-69 67 -69 66 -63 -4 c-53 -4 -87 -17 -237 -90 -96 -48 -216 -102 -265 -121
-112 -43 -203 -88 -241 -120 -16 -13 -62 -41 -103 -61 -100 -51 -224 -133
-293 -194 l-58 -51 -137 0 c-76 -1 -163 -4 -194 -7 -64 -7 -91 4 -212 85 -204
137 -310 163 -657 165 -239 1 -369 -10 -452 -40 -104 -36 -158 -103 -158 -195
l0 -54 -129 -32 c-175 -43 -245 -71 -249 -101 -4 -25 36 -136 80 -225 16 -32
26 -61 24 -66 -3 -4 -26 -16 -52 -26 -45 -17 -47 -17 -91 5 -42 21 -50 22
-100 11 -29 -7 -66 -23 -81 -36 -24 -20 -27 -31 -30 -99 l-4 -76 41 -41 c40
-41 43 -42 92 -36 76 9 110 34 134 94 20 52 40 68 113 88 45 13 20 -28 -33
-56 -43 -22 -51 -30 -58 -65 -18 -85 -59 -199 -108 -304 -29 -61 -54 -108 -57
-106 -5 6 28 118 39 133 16 18 13 104 -3 144 -13 30 -25 39 -75 57 -49 18
-120 71 -113 84 1 1 -3 23 -10 47 -8 31 -8 47 -1 54 6 6 11 19 11 29 0 10 18
38 41 63 l41 44 -7 83 c-28 362 -17 1159 22 1485 l6 53 136 82 c563 339 1283
607 1961 731 136 25 563 77 715 87 199 12 777 4 985 -15z m-233 -211 c-3 -3
-12 -4 -19 -1 -8 3 -5 6 6 6 11 1 17 -2 13 -5z m351 -21 c-10 -2 -28 -2 -40 0
-13 2 -5 4 17 4 22 1 32 -1 23 -4z m-794 -183 l111 -173 3 178 2 178 47 -7
c25 -3 70 -6 99 -6 l52 0 1 -172 c1 -95 4 -235 7 -310 l7 -138 -124 0 -124 1
-114 170 c-62 93 -116 168 -118 165 -3 -3 -8 -80 -12 -172 l-6 -166 -107 -5
-106 -4 4 38 c2 21 8 148 14 283 6 135 13 259 16 277 l5 32 107 3 c59 2 111 3
116 3 5 -1 59 -79 120 -175z m919 173 c-13 -2 -35 -2 -50 0 -16 2 -5 4 22 4
28 0 40 -2 28 -4z m-1863 -14 c-25 -4 -93 -15 -151 -22 -72 -10 -124 -24 -160
-41 -42 -21 -48 -22 -29 -6 41 33 99 50 220 64 129 15 188 18 120 5z m901 -6
c13 -16 12 -17 -3 -4 -10 7 -18 15 -18 17 0 8 8 3 21 -13z m764 -9 c127 -9
240 -20 253 -25 17 -7 22 -16 22 -46 0 -21 3 -56 7 -77 l6 -39 -109 6 -109 7
11 -222 c6 -123 9 -226 8 -229 -2 -4 -21 -3 -41 2 -63 14 -143 11 -143 -5 0
-19 27 -46 48 -47 11 0 9 -4 -8 -10 -22 -9 -28 -5 -58 31 l-34 40 -90 0 c-90
0 -90 0 -125 -35 -24 -24 -34 -42 -30 -54 6 -23 -10 -31 -56 -31 -18 0 -48 -4
-67 -10 -19 -5 -64 -11 -99 -13 -53 -3 -67 -8 -82 -28 -21 -27 -24 -70 -9 -99
17 -32 45 -41 90 -31 46 10 54 1 11 -16 -59 -22 -106 6 -121 70 -9 42 9 90 40
107 11 6 64 18 118 26 162 24 158 22 175 60 25 52 69 74 150 74 l67 0 2 108 2
107 5 -104 c6 -98 7 -104 30 -113 l24 -8 -6 92 c-4 51 -10 152 -13 224 l-7
131 -60 7 c-33 3 -80 6 -103 6 l-44 0 0 85 0 86 58 -5 c31 -3 161 -13 287 -22z
m445 11 l85 -14 -70 6 c-38 3 -106 8 -150 13 l-80 7 65 1 c36 0 103 -6 150
-13z m-1614 -92 c-21 -320 -27 -415 -32 -470 l-6 -63 -51 0 c-29 0 -76 -3
-106 -7 l-54 -6 7 54 c5 43 35 520 36 566 0 8 27 13 83 16 45 1 93 4 105 5
l24 2 -6 -97z m-370 42 c79 -24 80 -25 66 -91 -6 -31 -14 -60 -18 -63 -3 -3
-81 -6 -172 -6 -173 -1 -227 -12 -227 -45 0 -12 27 -16 160 -20 178 -6 212
-16 241 -72 25 -49 16 -144 -21 -204 -44 -71 -107 -100 -260 -119 -189 -24
-261 -23 -321 4 l-52 22 16 59 16 58 61 7 c33 3 85 6 115 6 89 0 224 19 239
34 7 7 11 21 8 29 -6 14 -27 16 -159 14 -135 -3 -157 -1 -184 16 -66 40 -82
135 -38 224 46 92 98 119 285 146 127 19 186 19 245 1z m2015 -1 l57 -6 7
-104 c4 -57 11 -107 16 -110 6 -3 55 -14 109 -23 l100 -18 0 22 c0 12 -5 59
-11 104 -6 45 -9 84 -7 86 4 5 186 -19 192 -26 4 -5 62 -363 76 -479 19 -151
19 -142 -4 -136 -12 3 -57 11 -102 18 l-81 12 -15 113 c-9 63 -18 116 -21 119
-5 5 -187 33 -218 34 -13 0 -15 -9 -8 -57 4 -32 10 -89 13 -127 l7 -69 -23 16
c-72 52 -115 72 -156 72 -30 0 -41 4 -37 13 2 6 0 47 -5 90 -5 42 -14 142 -20
222 -6 80 -13 169 -16 199 l-7 54 49 -6 c27 -3 74 -9 105 -13z m-1181 -44 c6
-11 8 -20 6 -20 -3 0 -10 9 -16 20 -6 11 -8 20 -6 20 3 0 10 -9 16 -20z m1293
-55 c3 -37 2 -51 -3 -35 -8 25 -13 107 -6 99 2 -2 6 -31 9 -64z m-2973 45
c-14 -4 -34 -8 -45 -8 -16 0 -15 2 5 8 14 4 34 8 45 8 16 0 15 -2 -5 -8z
m-115 -26 c-27 -7 -54 -13 -60 -13 -17 2 69 27 90 27 11 0 -2 -6 -30 -14z
m214 -31 c59 -225 121 -506 121 -546 0 -10 -93 -33 -209 -50 -8 -1 -18 16 -26
46 -6 26 -15 50 -18 53 -6 7 -176 -28 -220 -45 -34 -13 -34 -6 -1 55 41 78 -7
13 -57 -76 -66 -118 -68 -120 -93 -120 -13 0 -66 -14 -117 -30 -50 -17 -94
-28 -96 -26 -3 3 6 20 20 38 13 18 43 65 65 103 39 69 129 218 272 450 41 66
78 123 84 127 5 3 50 14 100 24 50 9 100 21 111 25 41 16 54 10 64 -28z m1631
-2 c0 -9 -7 -6 -20 9 -11 13 -20 25 -20 27 0 2 9 -2 20 -9 11 -7 20 -19 20
-27z m1999 7 c74 -17 129 -34 123 -36 -11 -3 -263 55 -271 64 -9 8 16 4 148
-28z m-34 -39 c44 -10 93 -22 109 -27 31 -9 30 -7 236 -342 45 -74 93 -151
105 -170 30 -48 115 -190 115 -194 0 -1 -50 12 -111 29 l-111 32 -45 74 c-25
41 -65 104 -89 141 -24 36 -44 71 -44 77 0 6 -23 52 -52 102 -59 104 -66 102
-70 -12 l-3 -73 53 -12 c30 -7 55 -14 57 -16 10 -11 72 -148 67 -148 -4 0 -39
7 -77 15 -39 8 -85 15 -102 15 -33 0 -33 0 -33 -51 0 -45 -2 -50 -17 -44 -39
16 -75 24 -138 30 l-67 8 6 31 c4 17 18 99 31 181 58 352 66 387 84 379 9 -3
52 -15 96 -25z m-3918 14 c-17 -33 -81 -133 -84 -133 -5 0 26 59 55 103 13 20
27 37 29 37 2 0 2 -3 0 -7z m4125 -76 c16 -28 47 -81 69 -117 23 -36 52 -81
64 -100 12 -19 63 -103 112 -185 50 -83 107 -176 127 -207 20 -32 36 -61 36
-65 0 -12 -61 82 -157 239 -47 79 -107 177 -133 218 -25 41 -64 104 -85 140
-21 36 -47 80 -57 98 -11 17 -16 32 -11 32 4 0 20 -24 35 -53z m-515 21 c-3
-8 -6 -5 -6 6 -1 11 2 17 5 13 3 -3 4 -12 1 -19z m-3183 -124 c14 -50 26 -99
25 -110 -1 -22 -55 164 -63 216 -7 44 1 23 38 -106z m3204 6 c0 -23 -1 -22 -8
5 -4 17 -8 46 -8 65 l0 35 9 -40 c4 -22 8 -51 7 -65z m87 -36 c-10 -55 -21
-106 -27 -114 -7 -11 -8 -9 -4 10 3 14 13 67 22 118 9 51 19 91 21 88 2 -2 -3
-48 -12 -102z m-3856 -16 c-25 -50 -112 -188 -116 -185 -3 4 118 207 124 207
2 0 -2 -10 -8 -22z m3802 -126 c7 -39 10 -75 7 -78 -6 -6 -25 93 -32 176 -5
49 -4 50 3 15 5 -22 15 -73 22 -113z m-2194 116 c-3 -8 -6 -5 -6 6 -1 11 2 17
5 13 3 -3 4 -12 1 -19z m310 -40 c-3 -8 -6 -5 -6 6 -1 11 2 17 5 13 3 -3 4
-12 1 -19z m-320 -120 c-2 -24 -4 -7 -4 37 0 44 2 63 4 43 2 -21 2 -57 0 -80z
m1826 65 c-7 -2 -19 -2 -25 0 -7 3 -2 5 12 5 14 0 19 -2 13 -5z m-343 -107 c6
-6 -15 -26 -53 -51 -64 -44 -108 -95 -128 -153 -10 -29 -8 -37 15 -73 15 -22
52 -65 82 -95 30 -31 53 -58 50 -61 -9 -9 -102 86 -147 149 -24 34 -57 75 -74
91 -28 27 -34 28 -87 22 -57 -6 -58 -6 -58 20 0 20 4 25 18 21 9 -2 36 -8 60
-11 27 -4 57 -18 77 -36 l34 -30 16 34 c21 45 86 109 138 137 39 21 42 25 41
64 -1 27 0 31 3 11 2 -16 8 -34 13 -39z m446 -63 c8 -82 2 -77 110 -93 96 -15
253 -48 230 -49 -41 -2 -322 51 -332 62 -11 12 -35 161 -33 202 2 33 18 -45
25 -122z m-3665 54 c-10 -9 -11 -8 -5 6 3 10 9 15 12 12 3 -3 0 -11 -7 -18z
m3376 -37 c19 -17 32 -30 31 -30 -2 0 -18 4 -36 9 -18 6 -30 6 -27 1 3 -4 -8
-10 -25 -12 -16 -2 -27 -1 -24 4 9 14 -9 9 -29 -9 -19 -17 -20 -17 -8 4 10 20
9 21 -17 13 -15 -4 -36 -11 -47 -16 -32 -12 34 56 70 71 35 16 64 7 112 -35z
m-3410 -22 c-90 -157 -170 -283 -154 -243 5 13 68 120 125 213 47 77 70 100
29 30z m2698 32 c18 -7 33 -7 46 1 20 10 49 -2 49 -21 0 -12 -76 -3 -107 14
-32 18 -26 21 12 6z m-742 -17 c-7 -2 -19 -2 -25 0 -7 3 -2 5 12 5 14 0 19 -2
13 -5z m-365 -20 c-16 -2 -40 -2 -55 0 -16 2 -3 4 27 4 30 0 43 -2 28 -4z
m1100 -23 c7 -11 11 -20 9 -20 -2 0 -12 9 -22 20 -10 11 -14 20 -9 20 5 0 15
-9 22 -20z m-1421 4 c-3 -3 -12 -4 -19 -1 -8 3 -5 6 6 6 11 1 17 -2 13 -5z
m-48 -8 c-8 -8 -247 -38 -276 -34 -15 2 26 11 92 19 123 17 192 22 184 15z
m3076 -57 c-10 -15 -25 -10 -19 6 4 8 10 12 15 9 5 -3 7 -10 4 -15z m-1807 4
c-10 -2 -26 -2 -35 0 -10 3 -2 5 17 5 19 0 27 -2 18 -5z m-1731 -9 c-3 -3 -12
-4 -19 -1 -8 3 -5 6 6 6 11 1 17 -2 13 -5z m1670 0 c-3 -3 -12 -4 -19 -1 -8 3
-5 6 6 6 11 1 17 -2 13 -5z m-1714 -11 c-7 -2 -19 -2 -25 0 -7 3 -2 5 12 5 14
0 19 -2 13 -5z m-103 -19 c-36 -7 -74 -13 -85 -12 -27 1 93 26 125 26 14 0 -4
-6 -40 -14z m2275 -44 c42 -11 1 -11 -50 -1 -34 7 -35 9 -10 9 17 0 44 -4 60
-8z m90 -30 c16 -16 26 -32 23 -35 -9 -10 -73 31 -76 48 -5 27 22 20 53 -13z
m-106 11 c19 -12 -14 -22 -88 -26 -41 -3 -51 -1 -38 6 9 6 22 7 27 4 6 -3 10
-2 10 4 0 8 14 12 65 19 6 1 16 -2 24 -7z m-2782 -47 c-3 -3 -12 -4 -19 -1 -8
3 -5 6 6 6 11 1 17 -2 13 -5z m2872 -26 c6 -17 19 -40 27 -50 16 -16 15 -17
-14 -8 -84 23 -112 86 -40 89 9 1 20 -12 27 -31z m-2910 18 c-8 -8 -171 -47
-176 -42 -5 4 8 8 112 34 44 11 71 14 64 8z m2842 -43 c13 -15 10 -16 -35 -10
-27 4 -58 7 -70 8 -21 0 -21 1 -1 9 35 15 92 11 106 -7z m516 -90 c-1 -21 2
-53 6 -70 8 -31 7 -33 -17 -33 -25 0 -25 2 -19 48 6 48 19 92 27 92 2 0 3 -17
3 -37z m-190 -29 c-3 -3 -12 -4 -19 -1 -8 3 -5 6 6 6 11 1 17 -2 13 -5z m23
-45 c-24 -11 -51 -25 -59 -32 -12 -10 -13 -9 -6 3 21 38 39 50 74 49 l36 0
-45 -20z m708 -13 c16 -16 15 -16 -12 -6 -39 15 -88 -17 -125 -82 -19 -32 -31
-45 -36 -38 -4 7 -4 15 1 19 5 3 10 11 11 16 1 6 4 19 8 30 3 11 -3 3 -15 -18
-14 -25 -18 -43 -12 -50 15 -19 0 -102 -18 -102 -8 0 -18 -9 -22 -20 -4 -11
-5 14 -3 55 5 63 11 85 43 140 20 35 47 70 60 76 29 14 98 3 120 -20z m-176 2
c-19 -20 -101 -52 -109 -44 -3 3 115 64 127 65 2 1 -5 -9 -18 -21z m-1098 -27
c3 -5 -16 -11 -43 -15 -28 -4 -99 -30 -163 -61 -120 -58 -233 -100 -223 -85 4
6 10 10 15 10 9 0 82 33 260 119 81 39 142 52 154 32z m1302 -18 c24 -31 54
-123 60 -182 13 -126 -53 -318 -119 -346 -43 -18 -71 -2 -91 50 -18 45 -36
141 -36 188 0 24 3 27 24 21 14 -3 33 -1 43 5 15 9 12 10 -20 11 -48 0 -53 13
-38 101 12 73 26 104 70 152 22 24 32 28 60 23 18 -3 39 -13 47 -23z m-250
-27 c-6 -19 -12 -33 -14 -31 -7 6 9 65 17 65 5 0 3 -15 -3 -34z m-360 -83 c16
-32 56 -106 87 -165 l58 -107 -36 -38 -35 -38 -19 23 c-11 12 -27 44 -36 70
-23 65 -67 162 -74 162 -4 0 -17 23 -30 50 -13 28 -28 50 -32 50 -21 0 -6 32
23 50 41 25 56 16 94 -57z m-211 7 c-3 -6 -12 -10 -18 -9 -9 0 -9 2 1 6 19 7
14 23 -5 16 -16 -6 -16 -5 -4 11 13 15 15 16 23 2 5 -9 6 -21 3 -26z m-75 -45
c-7 -9 -15 -13 -17 -11 -7 7 7 26 19 26 6 0 6 -6 -2 -15z m-900 -35 c-8 -5
-22 -9 -30 -9 -10 0 -8 3 5 9 27 12 43 12 25 0z m904 -15 c23 -35 20 -52 -14
-70 -40 -21 -56 -19 -75 8 -15 21 -14 23 19 55 43 38 49 39 70 7z m124 -23 c2
-7 -3 -12 -12 -12 -9 0 -16 7 -16 16 0 17 22 14 28 -4z m-748 -16 c123 -17
298 -69 262 -78 -12 -3 -20 -3 -17 2 3 4 -5 8 -18 7 -12 0 -71 8 -132 17 -114
18 -230 16 -363 -6 -64 -10 -71 -15 -33 -23 28 -5 71 -35 50 -35 -8 0 -20 5
-27 12 -12 12 -40 17 -95 19 -97 2 -409 -116 -502 -190 -18 -15 -19 -15 -7 1
24 31 159 117 238 152 126 55 274 103 354 115 158 23 163 23 290 7z m1687 -28
c-3 -8 -6 -5 -6 6 -1 11 2 17 5 13 3 -3 4 -12 1 -19z m-353 -223 c4 -11 -3 0
-15 25 -13 29 -22 72 -25 120 l-4 75 19 -100 c10 -55 22 -109 25 -120z m-2324
201 c0 -2 -7 -9 -15 -16 -13 -11 -14 -10 -9 4 5 14 24 23 24 12z m865 -52 c71
-11 125 -43 125 -75 0 -24 -3 -24 -54 6 -53 31 -146 63 -165 57 -8 -3 -11 0
-7 6 3 6 -2 13 -11 15 -19 6 61 -1 112 -9z m569 -10 c3 -8 2 -12 -4 -9 -6 3
-10 10 -10 16 0 14 7 11 14 -7z m86 -98 c40 -80 42 -87 39 -158 -4 -68 -8 -80
-47 -139 -48 -73 -89 -116 -89 -93 0 7 5 14 10 14 5 0 6 7 3 16 -3 9 4 25 19
40 14 14 22 30 19 36 -4 6 -3 9 2 5 5 -3 14 6 21 19 6 13 7 22 3 19 -5 -3 -5
9 0 26 6 19 5 63 -1 113 -6 44 -12 91 -12 103 -1 11 -6 19 -11 15 -5 -3 -7 4
-4 16 3 12 2 22 -4 24 -5 2 -10 10 -11 18 -2 8 -7 22 -12 30 -5 10 -1 9 12 -3
12 -10 40 -56 63 -101z m-3400 100 c0 -2 -9 -6 -20 -9 -11 -3 -18 -1 -14 4 5
9 34 13 34 5z m2429 -43 c-65 -56 -92 -84 -86 -90 3 -3 23 11 44 31 106 102
212 119 279 44 31 -34 42 -57 17 -35 -12 10 -27 20 -35 21 -7 1 -30 11 -50 21
-36 18 -39 18 -78 0 -22 -10 -40 -21 -40 -25 0 -4 -21 -17 -47 -29 l-48 -21
105 6 c58 3 115 7 127 10 25 5 53 -28 53 -63 0 -27 -15 -30 -30 -5 -11 16 -11
16 -6 0 6 -20 -10 -25 -17 -5 -3 7 -6 5 -6 -5 -1 -16 10 -23 32 -19 10 1 9
-17 -2 -23 -10 -7 -239 -24 -406 -31 -60 -2 -102 -2 -92 1 9 3 15 10 12 15 -3
5 2 6 11 2 12 -4 15 -3 10 5 -4 8 -2 10 7 6 8 -3 18 -1 22 5 3 6 -2 11 -13 11
-11 0 -25 6 -31 13 -8 11 -5 16 14 25 14 6 25 16 25 22 0 6 4 9 9 5 5 -3 12
-1 16 5 3 5 25 10 48 10 36 0 46 5 70 35 23 30 110 94 126 95 3 0 -15 -17 -40
-37z m1655 8 c23 -25 32 -118 17 -164 -34 -103 -142 -94 -171 13 -13 49 0 95
41 140 33 36 86 41 113 11z m-4100 0 c3 -5 -2 -15 -12 -22 -15 -12 -16 -12 -5
2 7 9 10 19 6 22 -3 4 -4 7 0 7 3 0 8 -4 11 -9z m1030 -15 c37 -9 102 -32 142
-52 79 -39 242 -149 209 -141 -11 3 -33 8 -48 11 -15 4 -25 11 -22 15 3 5 -4
7 -14 4 -13 -3 -23 2 -31 17 -19 36 -125 79 -210 86 -65 5 -79 3 -108 -15 -24
-16 -32 -27 -30 -44 5 -36 36 -77 58 -77 10 0 22 -5 26 -11 3 -6 17 -8 31 -4
14 3 22 2 19 -3 -4 -6 26 -8 74 -5 53 4 85 2 94 -6 19 -16 103 -16 251 -3 117
11 265 16 335 13 29 -2 32 -4 15 -11 -11 -5 -16 -9 -12 -9 5 -1 -1 -13 -12
-27 -12 -15 -22 -41 -22 -58 l-1 -31 -8 30 c-4 17 -8 26 -9 20 0 -6 -22 -9
-51 -7 -45 4 -216 -27 -265 -47 -32 -14 -78 -16 -275 -15 -207 0 -243 7 -320
59 -29 19 -57 32 -63 28 -6 -3 -7 -1 -3 5 4 6 0 19 -8 29 -9 10 -26 34 -39 53
-13 19 -31 34 -40 34 -21 -2 -21 5 -1 34 8 12 20 20 25 17 5 -3 6 1 3 9 -4 9
5 20 23 30 34 18 9 21 -27 3 -21 -11 -30 -10 -54 2 -19 9 -74 16 -155 19 -69
2 -134 8 -143 13 -20 11 -38 12 -21 1 6 -4 -29 -7 -77 -7 -75 0 -85 2 -67 12
45 26 107 36 262 43 221 11 485 4 569 -14z m2480 -18 c17 -24 21 -54 9 -61 -5
-2 -18 15 -30 39 -17 34 -19 44 -8 44 8 0 21 -10 29 -22z m-24 -35 c0 -13 -3
-13 -15 -3 -8 7 -15 19 -15 27 0 13 3 13 15 3 8 -7 15 -19 15 -27z m-903 21
c-3 -3 -12 -4 -19 -1 -8 3 -5 6 6 6 11 1 17 -2 13 -5z m133 -73 c0 -14 5 -33
11 -41 8 -11 9 -3 4 32 -3 26 -2 49 4 52 14 9 250 -21 338 -43 43 -11 107 -25
143 -32 35 -7 59 -14 52 -17 -10 -3 -10 -7 -2 -18 19 -22 -31 -28 -129 -15
-99 12 -125 13 -99 3 17 -7 -113 -9 -269 -4 l-73 2 10 25 c7 18 6 25 -2 25 -6
0 -9 3 -5 6 3 4 -3 24 -13 45 -26 51 -25 57 5 29 14 -13 25 -35 25 -49z m2290
53 c0 -8 -19 -13 -24 -6 -3 5 1 9 9 9 8 0 15 -2 15 -3z m-2037 -11 c-7 -2 -19
-2 -25 0 -7 3 -2 5 12 5 14 0 19 -2 13 -5z m2002 -2 c3 -5 2 -12 -3 -15 -5 -3
-9 1 -9 9 0 17 3 19 12 6z m-1788 -12 c43 -6 83 -15 88 -21 7 -8 6 -9 -2 -4
-7 4 -13 3 -13 -3 0 -5 6 -12 13 -15 21 -10 -95 4 -173 21 -41 9 -79 20 -84
25 -14 11 78 10 171 -3z m1064 -56 c13 -16 12 -17 -3 -4 -10 7 -18 15 -18 17
0 8 8 3 21 -13z m349 -107 c-1 -55 -3 -67 -11 -53 -6 10 -12 47 -13 81 -2 35
-6 69 -10 77 -4 8 2 3 13 -10 17 -19 21 -36 21 -95z m-1923 13 c37 -12 37 -12
13 -22 -14 -5 -61 -13 -105 -17 -77 -7 -75 -7 60 -10 l140 -3 -115 -8 c-117
-7 -217 -18 -440 -45 -69 -9 -174 -17 -235 -19 l-110 -4 55 19 c30 10 64 20
75 20 17 2 17 3 -4 9 -16 4 56 19 205 44 126 20 240 38 254 40 88 8 176 7 207
-4z m956 -98 c-2 -55 -23 -125 -33 -115 -5 5 -4 46 3 92 7 57 14 79 21 72 6
-6 10 -28 9 -49z m-3563 33 c0 -13 -30 -34 -49 -34 -11 0 -50 -7 -88 -15 -112
-25 -121 -26 -73 -3 81 38 210 70 210 52z m4060 -29 l23 -25 -25 0 c-23 0 -38
16 -38 41 0 16 16 10 40 -16z m-82 3 c21 -21 13 -43 -18 -55 -30 -11 -30 -11
-30 22 0 29 8 41 31 44 3 1 10 -4 17 -11z m-3568 -36 c17 -6 -53 -11 -230 -15
-233 -5 -263 -8 -345 -31 -49 -14 -101 -26 -115 -25 -14 0 13 11 60 25 82 23
240 49 345 58 79 6 258 -1 285 -12z m3684 -11 c7 -10 -79 -44 -97 -38 -6 2 6
13 28 25 44 23 61 27 69 13z m176 -48 c0 -30 -78 -92 -91 -72 -18 29 -9 66 22
92 26 21 34 24 50 14 11 -7 19 -22 19 -34z m-543 -50 c-3 -10 -5 -4 -5 12 0
17 2 24 5 18 2 -7 2 -21 0 -30z m383 22 c-46 -18 -61 -18 -30 0 14 8 34 14 45
14 13 0 8 -5 -15 -14z m-3573 -47 c7 -6 13 -13 13 -17 0 -3 -109 -1 -242 6
-134 6 -268 12 -298 12 -30 1 -50 5 -43 9 18 11 556 2 570 -10z m723 12 c0 -5
-2 -10 -4 -10 -3 0 -8 5 -11 10 -3 6 -1 10 4 10 6 0 11 -4 11 -10z m2900 3 c0
-9 -81 -45 -88 -39 -4 5 67 45 81 46 4 0 7 -3 7 -7z m-2940 -13 c-8 -5 -22
-10 -30 -10 -13 0 -13 1 0 10 8 5 22 10 30 10 13 0 13 -1 0 -10z m-1210 -45
c0 -14 -4 -25 -10 -25 -5 0 -10 6 -10 13 0 8 -4 7 -10 -3 -8 -12 -10 -11 -10
6 0 24 8 34 27 34 7 0 13 -11 13 -25z m1790 16 c0 -11 76 -87 108 -109 l23
-15 -52 -48 c-32 -29 -58 -45 -68 -42 -13 4 -13 3 -2 -5 11 -8 6 -17 -25 -43
-21 -18 -75 -69 -118 -113 -43 -45 -70 -67 -58 -51 11 17 48 57 81 89 33 33
57 64 54 70 -3 6 -2 8 2 3 10 -8 45 21 45 37 0 8 -2 8 -8 0 -4 -6 -26 -21 -50
-33 l-43 -22 -41 32 c-37 30 -40 31 -33 10 6 -20 5 -21 -13 -10 -12 7 -18 17
-15 22 3 5 -4 4 -15 -2 -11 -6 -58 -11 -104 -10 l-83 0 76 23 c86 26 173 83
259 170 50 52 80 69 80 47z m-1720 -21 c0 -11 -4 -20 -9 -20 -14 0 -23 18 -16
30 10 17 25 11 25 -10z m3699 -7 c0 -25 -1 -25 -8 -8 -5 11 -7 23 -4 28 8 14
13 7 12 -20z m411 17 c0 -5 -5 -10 -11 -10 -5 0 -7 5 -4 10 3 6 8 10 11 10 2
0 4 -4 4 -10z m-3856 -9 c8 -12 -3 -41 -15 -41 -5 0 -9 11 -9 25 0 25 14 34
24 16z m66 -20 c0 -11 -9 -21 -22 -24 -28 -8 -32 -4 -23 22 8 27 45 28 45 2z
m3876 -48 c10 -21 25 -42 32 -46 7 -5 10 -12 7 -17 -3 -5 3 -15 15 -22 11 -7
20 -21 20 -30 0 -10 5 -18 10 -18 6 0 10 -8 10 -19 0 -10 7 -24 15 -31 8 -7
15 -18 15 -25 0 -7 7 -18 15 -25 9 -7 13 -15 10 -18 -3 -3 2 -13 11 -23 15
-17 12 -39 -6 -39 -4 0 -17 16 -29 35 -13 22 -28 35 -41 35 -22 0 -28 16 -8
22 18 6 -1 28 -25 28 -12 0 -41 -9 -65 -20 -23 -11 -41 -16 -38 -12 3 5 28 19
56 32 58 27 60 46 4 44 l-38 -2 32 17 c25 13 30 19 20 29 -7 7 -23 12 -37 12
-20 0 -23 3 -11 9 8 6 18 7 22 5 4 -3 8 -1 8 4 0 6 -7 12 -15 16 -8 3 -13 11
-11 18 1 7 1 10 -1 6 -3 -5 -14 -8 -24 -8 -11 0 -33 -7 -49 -15 -17 -9 -30
-13 -30 -10 0 4 21 15 46 26 25 11 43 26 41 32 -4 13 -50 15 -82 3 -13 -5 -11
-2 5 8 14 8 35 15 48 16 12 0 22 5 22 10 0 24 28 7 46 -27z m-3624 -40 c23
-32 63 -80 88 -108 51 -56 29 -44 -43 24 -41 39 -108 141 -92 141 2 0 23 -26
47 -57z m2457 54 c-2 -1 -13 -9 -24 -17 -19 -14 -19 -14 -6 3 7 9 18 17 24 17
6 0 8 -1 6 -3z m89 -32 c14 -30 15 -55 4 -55 -5 0 -20 13 -35 28 -21 22 -24
31 -15 40 19 19 34 14 46 -13z m358 -42 c-15 -41 -22 -52 -24 -37 -4 26 23 94
36 94 5 0 0 -26 -12 -57z m-3306 -34 c0 -14 -5 -19 -15 -16 -8 4 -17 2 -20 -3
-3 -5 2 -11 10 -13 11 -3 10 -4 -2 -3 -10 1 -17 8 -15 14 1 7 -5 15 -14 19
-21 8 1 23 34 23 16 0 22 -6 22 -21z m370 6 c0 -8 5 -14 11 -12 7 1 18 -12 25
-30 13 -30 12 -32 -4 -26 -9 4 -22 13 -28 21 -9 13 -12 11 -17 -8 -6 -24 -25
-23 -41 3 -8 12 -5 22 14 42 27 28 40 32 40 10z m1978 6 c10 -6 5 -15 -19 -36
-33 -27 -33 -27 -42 -7 -5 12 -7 28 -4 36 7 17 44 21 65 7z m492 5 c0 -3 -4
-8 -10 -11 -5 -3 -10 -1 -10 4 0 6 5 11 10 11 6 0 10 -2 10 -4z m917 -35 c19
-35 20 -41 6 -52 -17 -15 -33 2 -33 38 0 12 -3 28 -6 37 -13 33 13 15 33 -23z
m-4451 -17 c1 -28 -1 -30 -24 -26 -14 3 -36 15 -49 28 -20 20 -21 23 -5 27 9
3 30 4 47 4 26 -2 30 -6 31 -33z m914 32 c0 -2 -7 -7 -16 -10 -8 -3 -12 -2 -9
4 6 10 25 14 25 6z m3433 -33 c3 -21 8 -54 12 -73 6 -32 5 -33 -8 -17 -8 9
-38 23 -66 30 -36 8 -50 16 -46 25 3 8 5 22 5 33 0 21 30 37 71 38 23 1 27 -4
32 -36z m-1053 -19 l25 -24 -40 20 c-21 11 -45 20 -52 20 -6 0 -15 4 -18 10
-12 20 60 -3 85 -26z m-50 -20 c0 -7 -35 10 -42 20 -5 8 -8 8 -8 0 0 -7 -11
-15 -25 -18 -13 -3 -31 -19 -39 -34 -9 -15 -15 -23 -16 -19 -1 19 23 49 52 67
28 17 33 17 54 3 13 -8 24 -17 24 -19z m-296 7 c3 -5 -1 -12 -10 -15 -22 -9
-24 -8 -24 9 0 16 25 21 34 6z m134 1 c16 -11 -2 -66 -20 -60 -23 8 -33 35
-19 52 15 18 21 19 39 8z m-2074 -8 c9 -4 21 -15 26 -25 9 -15 7 -17 -11 -14
-24 5 -49 23 -49 36 0 11 12 11 34 3z m1310 -2 c8 -13 -5 -52 -17 -52 -5 0
-16 -8 -24 -17 -8 -10 -12 -13 -9 -7 9 19 -33 24 -44 6 -5 -10 -10 -12 -10 -6
0 15 25 36 33 27 4 -3 7 1 7 9 0 9 10 23 23 31 26 18 34 20 41 9z m298 -27
c10 -21 8 -28 -8 -40 -25 -19 -27 -19 -55 4 l-24 19 28 13 c15 7 27 16 27 21
0 18 21 7 32 -17z m733 5 c3 -5 1 -10 -4 -10 -6 0 -11 5 -11 10 0 6 2 10 4 10
3 0 8 -4 11 -10z m1201 -97 c12 -28 28 -54 33 -58 6 -3 11 -15 11 -25 0 -11
14 -29 30 -42 17 -12 29 -25 28 -29 -4 -9 -109 -92 -112 -87 -50 69 -67 184
-40 269 10 29 20 47 22 39 3 -8 15 -38 28 -67z m-2008 55 c7 -7 12 -21 12 -32
0 -18 -1 -18 -25 4 -14 13 -25 27 -25 32 0 12 24 10 38 -4z m3076 -8 c49 -5
94 -14 100 -21 8 -8 1 -10 -29 -5 -175 26 -432 16 -585 -24 -41 -10 -76 -18
-78 -16 -4 4 75 36 98 40 8 1 25 6 38 10 69 23 309 32 456 16z m-3814 -29
c175 -14 211 -20 197 -36 -6 -6 -19 -10 -27 -8 -9 3 -23 -4 -31 -14 -13 -17
-13 -17 4 -4 23 18 32 8 15 -18 -10 -17 -19 -20 -43 -15 -16 4 -46 8 -65 9
-80 3 -90 5 -90 20 0 8 -4 15 -10 15 -5 0 -10 -4 -10 -9 0 -5 -9 -11 -21 -14
-15 -4 -19 -2 -15 9 4 11 2 12 -14 2 -14 -9 -39 -9 -108 0 -49 7 -110 12 -135
12 -61 0 -66 13 -12 35 24 10 41 23 38 28 -6 10 84 7 327 -12z m720 -6 c7 -13
17 -22 22 -19 4 3 8 1 8 -3 0 -5 -10 -14 -22 -22 -20 -12 -24 -11 -49 20 -19
24 -24 36 -16 41 22 14 44 8 57 -17z m1460 -1 c0 -2 -9 0 -20 6 -11 6 -20 13
-20 16 0 2 9 0 20 -6 11 -6 20 -13 20 -16z m-516 -59 c5 -15 -73 -77 -103 -82
-16 -2 -32 -23 -26 -34 3 -3 -5 -15 -17 -25 -19 -17 -21 -17 -15 -2 5 15 3 16
-21 5 -15 -6 -30 -16 -34 -22 -5 -6 -8 -6 -8 2 0 17 84 117 116 138 24 15 61
28 95 34 4 1 9 -6 13 -14z m2286 -10 c41 -10 83 -22 93 -27 10 -5 55 -18 100
-28 58 -13 72 -19 47 -19 -19 0 -75 8 -125 19 -174 39 -301 59 -376 60 -75 0
-219 -29 -269 -55 -35 -19 -87 -75 -101 -110 -6 -16 -13 -24 -16 -18 -9 26 39
99 85 131 91 61 148 72 342 67 87 -2 175 -10 220 -20z m-4010 -20 c96 -9 179
-21 184 -26 6 -5 -5 -8 -26 -7 -19 1 -41 -2 -48 -7 -17 -10 -132 -7 -143 4 -5
5 18 7 54 4 35 -3 62 -3 59 0 -3 3 -35 8 -71 11 -36 3 -88 10 -115 15 -27 5
-84 12 -127 16 -42 4 -79 10 -81 14 -5 7 26 4 314 -24z m2666 -44 l16 -61 -40
-48 c-79 -94 -230 -232 -254 -232 -47 0 -49 10 -15 110 24 71 36 94 47 91 56
-16 86 -12 126 17 46 34 94 118 94 166 0 42 8 28 26 -43z m-3483 31 c-3 -10
55 -32 85 -32 17 0 15 -25 -3 -40 -13 -11 -14 -10 -9 3 4 12 -7 22 -42 39 -26
13 -50 29 -52 37 -3 8 1 12 9 9 8 -3 13 -10 12 -16z m1856 -49 c2 -46 -58 -71
-85 -35 -20 26 -17 42 9 43 12 0 31 5 42 10 14 6 5 7 -27 3 -30 -4 -48 -2 -48
4 0 5 21 14 48 19 51 9 60 3 61 -44z m-731 2 c-13 -19 -27 -35 -31 -35 -10 0
0 18 26 48 29 32 31 27 5 -13z m1076 24 c-2 -4 2 -10 8 -13 7 -3 4 -5 -6 -3
-23 2 -33 24 -12 24 8 0 13 -4 10 -8z m-2214 -34 c7 -8 27 -19 44 -24 20 -6
24 -9 11 -10 -19 -1 -85 33 -85 44 0 10 18 4 30 -10z m2455 -4 c-3 -6 -11 -11
-17 -11 -6 0 -6 6 2 15 14 17 26 13 15 -4z m-2509 -3 c-10 -6 -22 -6 -26 -2
-5 5 3 10 18 11 22 1 24 0 8 -9z m4787 -25 c-7 -2 -21 -2 -30 0 -10 3 -4 5 12
5 17 0 24 -2 18 -5z m44 -9 c-3 -3 -12 -4 -19 -1 -8 3 -5 6 6 6 11 1 17 -2 13
-5z m-4779 -24 c18 -11 39 -20 47 -20 7 0 16 -4 20 -10 9 -14 -86 17 -104 35
-21 21 -2 19 37 -5z m210 -4 c47 -30 129 -116 171 -178 47 -71 30 -58 -24 17
-40 57 -123 136 -181 172 -10 6 -16 12 -11 12 4 1 24 -10 45 -23z m4762 -32
c69 -32 143 -74 137 -80 -2 -2 -26 8 -52 23 -26 14 -82 42 -124 60 -42 19 -62
32 -46 28 17 -3 55 -17 85 -31z m-4959 -34 c7 0 9 -3 5 -7 -8 -9 -76 26 -76
39 0 5 13 0 29 -11 16 -12 35 -21 42 -21z m3569 -6 c0 -6 -10 -19 -21 -30 -39
-35 -141 -178 -176 -249 -53 -105 -119 -314 -142 -455 -50 -304 -95 -402 -217
-480 -49 -30 -78 -40 -56 -18 7 7 12 15 12 18 0 13 -61 9 -95 -6 -48 -20 -102
-17 -155 9 -41 20 -74 66 -59 82 3 3 39 -7 80 -21 92 -31 144 -28 203 13 49
35 121 135 113 157 -10 26 -51 18 -83 -15 -71 -75 -133 -84 -240 -35 l-57 26
64 50 c35 28 82 55 104 61 107 28 202 86 286 176 60 64 83 108 75 144 -4 23
-1 32 19 45 15 10 25 26 25 40 0 20 -5 24 -28 24 -40 0 -69 -24 -98 -82 -24
-47 -26 -49 -43 -33 -13 11 -27 14 -45 9 -31 -7 -31 -4 -9 39 9 18 27 70 39
116 13 47 28 89 34 95 5 5 33 9 61 7 64 -3 109 14 109 41 0 12 40 61 93 116
51 54 112 121 136 150 40 48 44 51 57 35 7 -10 14 -23 14 -29z m-3400 16 c19
-15 21 -20 8 -20 -27 0 -48 11 -48 26 0 19 10 17 40 -6z m2896 -74 c-14 -47
-30 -87 -35 -90 -5 -3 -14 7 -21 23 -6 17 -23 44 -36 62 -25 34 -31 73 -14 84
6 4 26 1 46 -5 28 -10 39 -9 57 3 12 8 24 13 26 11 2 -2 -8 -41 -23 -88z
m2084 74 c0 -5 -4 -10 -10 -10 -5 0 -10 5 -10 10 0 6 5 10 10 10 6 0 10 -4 10
-10z m-30 -10 c0 -5 -2 -10 -4 -10 -3 0 -8 5 -11 10 -3 6 -1 10 4 10 6 0 11
-4 11 -10z m-3180 -4 c0 -3 -4 -8 -10 -11 -5 -3 -10 -1 -10 4 0 6 5 11 10 11
6 0 10 -2 10 -4z m-1975 -40 c17 -14 14 -14 -17 1 -21 9 -38 21 -38 25 0 10
25 -2 55 -26z m4530 23 c-71 -4 -152 -11 -180 -17 -60 -12 -73 -7 -19 7 61 15
91 18 214 18 l115 0 -130 -8z m-2541 -11 c-3 -4 -23 -8 -45 -8 -23 0 -38 4
-34 9 3 6 23 9 45 8 21 0 36 -5 34 -9z m76 3 c0 -15 -16 -22 -35 -15 -13 5
-14 8 -3 15 18 12 38 11 38 0z m2643 2 c-7 -2 -21 -2 -30 0 -10 3 -4 5 12 5
17 0 24 -2 18 -5z m-3059 -14 c-4 -8 0 -9 15 -4 11 3 21 3 21 0 0 -13 -26 -31
-38 -27 -15 5 -16 42 -1 42 5 0 7 -5 3 -11z m144 4 c-15 -2 -42 -2 -60 0 -18
2 -6 4 27 4 33 0 48 -2 33 -4z m85 0 c-7 -2 -21 -2 -30 0 -10 3 -4 5 12 5 17
0 24 -2 18 -5z m2890 0 c-7 -2 -21 -2 -30 0 -10 3 -4 5 12 5 17 0 24 -2 18 -5z
m447 -3 c0 -5 -2 -10 -4 -10 -3 0 -8 5 -11 10 -3 6 -1 10 4 10 6 0 11 -4 11
-10z m-3617 -22 c-13 -12 -26 -19 -29 -15 -4 4 1 14 12 22 29 22 41 18 17 -7z
m-1651 -8 c6 0 24 -12 42 -27 31 -26 31 -26 5 -20 -39 10 -58 -16 -27 -37 33
-23 12 -20 -33 6 -46 25 -49 34 -12 33 14 0 28 6 30 13 3 7 -4 12 -16 12 -12
0 -21 6 -21 13 0 18 14 31 18 18 2 -6 8 -11 14 -11z m4923 5 c39 -17 21 -18
-25 0 -19 7 -28 14 -20 14 8 0 29 -6 45 -14z m-4614 -15 c34 0 59 -3 57 -7 -2
-5 -23 -38 -47 -75 -36 -55 -50 -68 -71 -68 -24 0 -28 6 -46 69 -24 81 -18
106 22 91 14 -6 52 -10 85 -10z m-1045 -7 c-3 -10 -8 -36 -12 -57 -5 -31 -4
-38 7 -34 43 15 150 40 155 36 3 -3 -2 -46 -10 -94 -9 -49 -16 -113 -16 -142
0 -48 -3 -55 -36 -84 -53 -47 -77 -101 -78 -178 -1 -87 32 -147 105 -187 50
-27 52 -30 89 -131 36 -94 70 -166 130 -267 19 -33 20 -36 4 -20 -37 37 -194
335 -194 366 0 5 -11 15 -25 21 -14 6 -25 16 -25 21 0 6 -3 8 -6 5 -5 -6 -12
-1 -69 50 -22 20 -30 40 -26 65 0 4 -2 7 -6 7 -5 0 -9 12 -9 28 -2 39 16 174
26 192 5 9 3 21 -6 31 -16 18 -74 181 -74 207 0 12 3 13 8 5 4 -7 23 -15 41
-18 18 -3 46 -12 62 -20 15 -8 29 -15 31 -15 10 0 4 90 -6 91 -6 0 -32 1 -58
1 -26 -1 -53 4 -60 11 -7 7 -29 12 -48 12 -43 -1 -76 13 -63 26 12 12 155 88
166 89 5 0 6 -8 3 -17z m6124 6 c12 -8 10 -9 -7 -4 -12 3 -24 1 -28 -4 -3 -6
0 -8 8 -5 8 3 21 -1 28 -9 8 -7 21 -11 29 -9 11 4 11 2 -2 -11 -18 -18 -33
-23 -24 -8 3 5 -1 12 -10 15 -8 3 -12 2 -9 -4 13 -20 -14 -9 -29 12 -12 17
-13 24 -3 30 16 10 29 10 47 -3z m-5680 -46 c-9 -15 -10 -14 -4 7 6 23 6 24
-11 10 -17 -14 -17 -14 -4 7 11 19 15 20 22 8 4 -9 3 -22 -3 -32z m2344 31 c9
-23 7 -46 -3 -40 -11 7 -21 56 -11 56 4 0 11 -7 14 -16z m-1004 -19 c0 -18
-27 -26 -39 -11 -7 9 -7 16 0 23 14 14 39 6 39 -12z m2663 -3 c-10 -10 -20
-17 -22 -16 -6 5 20 34 30 34 5 0 1 -8 -8 -18z m1662 -74 c65 -72 76 -90 19
-33 -33 33 -78 75 -99 93 l-40 33 45 -29 c25 -17 59 -45 75 -64z m-2547 55
c-16 -39 -32 -54 -18 -19 12 33 19 46 25 46 3 0 -1 -12 -7 -27z m-3137 -10
c12 -14 12 -16 0 -8 -11 6 -13 4 -8 -8 3 -9 0 -31 -8 -49 -8 -18 -14 -27 -15
-20 0 7 -5 10 -11 7 -5 -4 -3 10 7 32 9 21 17 44 17 51 0 16 2 15 18 -5z
m3970 -26 l-24 -22 19 27 c10 14 21 24 23 22 3 -3 -6 -15 -18 -27z m1784 13
c-17 -6 -14 -9 18 -15 26 -5 37 -12 33 -21 -3 -8 0 -11 10 -7 8 3 14 -1 15
-11 1 -9 2 -21 3 -27 0 -7 10 -15 21 -20 17 -6 15 -8 -9 -8 -23 -1 -40 10 -78
50 -26 28 -48 55 -48 60 0 5 12 9 28 8 24 0 24 -1 7 -9z m-5494 -17 c13 -16
12 -17 -3 -4 -17 13 -22 21 -14 21 2 0 10 -8 17 -17z m3947 -18 c-3 -3 -9 2
-12 12 -6 14 -5 15 5 6 7 -7 10 -15 7 -18z m937 -2 c82 -19 164 -53 184 -76
20 -25 8 -55 -50 -127 -82 -104 -90 -111 -106 -98 -7 6 -16 9 -18 6 -3 -3 27
-33 65 -67 79 -71 111 -119 141 -212 31 -100 29 -95 38 -81 8 14 264 102 297
102 28 0 40 -33 55 -151 17 -131 1 -162 -64 -128 l-21 12 22 8 c20 8 22 15 22
81 0 95 -10 110 -42 67 -13 -19 -36 -51 -51 -71 -15 -20 -27 -42 -27 -48 0 -8
-9 -10 -22 -6 -13 3 -55 13 -95 22 l-72 17 -4 41 c-3 40 -4 39 -6 -9 -5 -135
-62 -263 -159 -362 -188 -191 -479 -187 -696 9 -36 33 -64 54 -61 46 6 -14
-56 -46 -103 -52 -50 -7 -107 -33 -110 -50 -4 -19 46 -101 100 -163 l37 -43
61 82 c55 73 110 130 110 113 0 -12 -151 -220 -165 -228 -24 -13 -99 65 -144
153 -23 43 -41 87 -41 98 0 15 23 30 104 66 57 25 111 46 120 46 22 0 20 14
-10 59 l-25 39 -91 -39 c-128 -55 -132 -54 -152 29 -9 37 -18 94 -19 127 l-2
60 48 3 c46 3 47 3 47 -26 0 -50 102 -109 125 -72 11 18 53 11 60 -9 5 -16 11
-18 37 -10 36 10 48 -1 85 -83 21 -47 19 -60 -5 -36 -22 22 -13 -5 10 -29 18
-19 19 -23 5 -23 -10 0 -14 -5 -11 -15 7 -16 16 -10 68 43 l33 34 49 -30 c53
-33 131 -62 167 -62 20 -1 20 -2 -5 -16 -57 -30 -26 -65 54 -61 l56 2 -20 27
c-10 15 -27 32 -36 38 -14 8 -11 9 15 10 47 0 134 42 176 83 30 31 37 34 47
22 20 -24 48 -17 65 15 25 48 20 70 -16 70 -30 0 -30 1 -22 33 14 54 8 170
-10 206 -14 28 -14 32 -2 27 9 -3 20 3 27 13 11 18 12 18 31 -3 18 -20 18 -19
-1 9 -11 17 -23 41 -27 55 -4 14 -18 39 -31 57 -30 39 -31 55 -3 24 19 -20 23
-21 42 -8 29 19 33 37 7 37 -17 0 -21 -4 -16 -17 6 -15 4 -15 -14 2 -21 19
-28 41 -9 30 6 -4 5 2 -3 14 -18 29 -25 27 -39 -12 -10 -28 -16 -33 -36 -29
-14 3 -27 11 -30 18 -3 8 -10 14 -15 14 -6 0 -7 -7 -4 -16 4 -12 1 -14 -14 -9
-29 9 -25 -4 13 -43 l32 -35 -31 22 c-16 12 -64 33 -105 46 -48 16 -64 24 -46
25 15 0 27 4 27 9 0 5 7 16 15 24 12 13 9 16 -30 26 -37 9 -45 15 -45 35 0 23
-32 61 -43 50 -3 -3 -22 -6 -41 -6 -20 0 -38 -4 -41 -9 -6 -10 -35 -1 -35 11
0 16 95 40 159 40 36 0 88 -7 115 -15 73 -22 87 -19 52 11 -33 29 -45 73 -46
160 0 92 5 93 165 57z m-4048 -8 c0 -8 -4 -12 -9 -9 -4 3 -8 9 -8 15 0 5 4 9
8 9 5 0 9 -7 9 -15z m2191 -142 c-3 -74 -6 -85 -30 -110 -35 -35 -45 -25 -19
18 26 43 26 75 1 116 -19 32 -19 32 3 81 l22 50 13 -37 c8 -22 12 -68 10 -118z
m-2847 84 c-19 -19 -24 1 -10 35 l14 33 3 -29 c2 -16 -1 -33 -7 -39z m3479 16
c-16 -27 -34 -58 -40 -70 -10 -23 -20 -30 -20 -15 0 11 78 132 84 132 3 0 -8
-21 -24 -47z m240 -8 c-7 -8 -17 -15 -22 -15 -11 0 14 29 26 30 5 0 3 -7 -4
-15z m564 -57 c25 -39 46 -77 46 -84 0 -11 -68 -41 -74 -32 -1 1 -21 40 -44
85 -38 75 -40 83 -24 92 35 21 50 11 96 -61z m-4769 2 c-2 -3 -5 -31 -5 -61
-2 -66 -8 -89 -22 -89 -12 0 -5 131 9 153 4 6 7 23 6 37 -2 22 -1 22 7 -4 5
-16 7 -32 5 -36z m2520 30 c4 -13 -3 -32 -21 -55 -29 -38 -46 -41 -20 -3 9 12
16 35 16 50 0 32 16 37 25 8z m-2252 4 c13 -5 12 -14 -6 -67 -20 -60 -21 -61
-29 -32 -4 17 -3 46 3 67 11 41 10 41 32 32z m5679 -28 c-2 -5 1 -12 7 -15 19
-12 25 -67 8 -74 -10 -4 -26 11 -49 47 l-35 53 36 -1 c20 -1 34 -5 33 -10z
m-3877 -73 c44 -45 71 -90 61 -100 -2 -3 -11 8 -20 25 -8 16 -31 43 -50 60
-20 17 -36 35 -36 41 0 5 -19 9 -41 9 -23 1 -47 6 -53 13 -8 9 1 10 40 6 45
-5 58 -12 99 -54z m45 23 c25 -4 51 -8 58 -8 6 -1 12 -6 12 -12 0 -6 15 -23
34 -38 33 -27 46 -68 21 -68 -15 0 -145 99 -145 111 0 5 -6 9 -14 9 -7 0 -20
8 -27 18 -12 15 -12 16 1 6 8 -6 35 -14 60 -18z m204 -5 c15 -17 15 -19 1 -25
-9 -3 -13 -2 -10 4 3 6 0 10 -8 10 -7 0 -14 7 -14 15 0 20 10 19 31 -4z m1568
-36 c-9 -19 -18 -32 -20 -30 -7 6 19 65 28 65 4 0 0 -16 -8 -35z m1635 16 c38
-24 129 -132 163 -195 31 -58 23 -73 -51 -99 -78 -27 -221 -69 -224 -65 -1 2
-13 23 -25 48 -12 25 -34 57 -47 72 -26 27 -26 27 -7 56 66 103 139 202 148
202 6 0 25 -9 43 -19z m-4242 -31 c9 -16 13 -30 11 -30 -3 0 -12 14 -21 30 -9
17 -13 30 -11 30 3 0 12 -13 21 -30z m3155 -10 c25 -48 26 -86 3 -94 -9 -4
-41 -4 -70 0 l-52 6 16 32 c18 36 64 94 75 95 4 1 17 -17 28 -39z m1489 -30
c0 -13 -1 -13 -6 0 -3 8 -15 29 -25 45 l-20 30 26 -30 c14 -16 26 -37 25 -45z
m-3554 40 c10 -11 16 -20 13 -20 -3 0 -13 9 -23 20 -10 11 -16 20 -13 20 3 0
13 -9 23 -20z m106 3 c13 -16 12 -17 -3 -5 -13 10 -17 10 -20 0 -3 -8 -7 -6
-11 5 -9 23 16 22 34 0z m1600 -16 c-10 -9 -11 -8 -5 6 3 10 9 15 12 12 3 -3
0 -11 -7 -18z m-3963 -7 c20 -32 178 -130 209 -130 25 0 26 -1 11 -17 -16 -15
-23 -12 -110 40 -115 69 -153 100 -144 115 10 17 19 15 34 -8z m122 -5 c25
-14 69 -37 99 -52 48 -23 55 -24 63 -9 19 34 95 58 124 38 6 -4 14 -17 18 -30
10 -29 -18 -41 -43 -18 -10 9 -33 16 -51 16 -32 0 -33 -1 -16 -19 10 -11 15
-25 11 -30 -13 -22 -61 -10 -110 25 -28 20 -81 51 -120 70 -49 24 -62 34 -45
34 14 0 45 -11 70 -25z m1277 -11 c21 -21 24 -32 20 -61 -8 -48 -23 -63 -63
-63 -45 0 -68 34 -60 87 11 65 58 82 103 37z m-354 9 c-7 -2 -21 -2 -30 0 -10
3 -4 5 12 5 17 0 24 -2 18 -5z m4853 -17 c9 -9 10 -17 4 -21 -5 -3 -10 -11
-10 -16 0 -6 5 -7 10 -4 6 3 10 -1 10 -10 0 -9 5 -13 10 -10 6 3 10 2 10 -4 0
-5 8 -12 18 -14 11 -3 8 -5 -9 -6 -28 -1 -66 40 -54 59 3 5 1 11 -5 15 -11 7
-14 25 -4 25 3 0 12 -6 20 -14z m-3731 -19 c1 -7 6 -11 12 -10 19 4 47 -35 36
-49 -10 -13 -10 -25 1 -69 4 -15 0 -12 -9 8 -8 17 -24 38 -36 46 -13 9 -18 20
-14 27 6 9 10 8 17 -4 5 -9 14 -16 20 -16 6 0 3 9 -7 20 -12 13 -22 17 -30 10
-11 -9 -90 -2 -81 8 3 2 19 6 36 8 22 3 29 0 24 -9 -4 -7 -3 -8 2 -4 5 5 10
17 10 28 1 10 2 22 3 26 2 10 16 -7 16 -20z m-1573 -25 c-7 -2 -10 -7 -7 -12
5 -9 -52 -6 -61 3 -4 3 9 15 27 26 31 19 34 19 43 4 6 -11 5 -18 -2 -21z
m3304 -56 c-23 -60 -32 -65 -22 -12 6 29 28 66 40 66 2 0 -6 -24 -18 -54z
m1954 34 c6 -11 8 -20 6 -20 -3 0 -10 9 -16 20 -6 11 -8 20 -6 20 3 0 10 -9
16 -20z m-1155 -10 c3 -5 1 -10 -4 -10 -6 0 -11 5 -11 10 0 6 2 10 4 10 3 0 8
-4 11 -10z m-4265 -4 c0 -2 -7 -6 -15 -10 -8 -3 -15 -1 -15 4 0 6 7 10 15 10
8 0 15 -2 15 -4z m300 -16 c0 -5 -2 -10 -4 -10 -3 0 -8 5 -11 10 -3 6 -1 10 4
10 6 0 11 -4 11 -10z m30 6 c0 -3 -4 -8 -10 -11 -5 -3 -10 -1 -10 4 0 6 5 11
10 11 6 0 10 -2 10 -4z m3400 -88 c-12 -53 -11 -60 5 -72 15 -11 16 -18 7 -44
-7 -19 -7 -34 -1 -37 5 -4 9 -15 9 -26 0 -22 -31 -26 -74 -9 -34 13 -34 37 5
145 47 135 51 144 57 121 2 -11 -2 -46 -8 -78z m73 48 c15 -24 27 -46 27 -50
0 -11 -46 -6 -58 6 -13 13 -17 88 -4 88 4 -1 19 -20 35 -44z m-4244 24 c29 -5
90 -21 137 -36 75 -22 88 -30 106 -60 21 -35 44 -42 79 -23 40 21 326 -82 349
-126 8 -15 11 -41 7 -70 -7 -47 -34 -111 -44 -101 -3 3 -15 -1 -27 -9 -23 -17
-40 -20 -32 -6 3 4 -5 6 -17 4 -12 -2 -71 12 -131 32 -60 20 -110 34 -113 31
-2 -2 32 -16 77 -31 45 -15 80 -29 78 -31 -11 -10 -576 170 -597 191 -12 11
-1 9 39 -8 49 -21 130 -44 119 -33 -2 2 -30 13 -63 25 -32 11 -70 28 -85 38
-14 10 -30 16 -34 15 -17 -5 -19 30 -2 42 17 13 17 33 -1 80 -8 20 58 86 85
86 10 0 42 -4 70 -10z m1601 2 c0 -14 -56 -63 -63 -55 -9 8 -9 48 0 56 9 10
63 9 63 -1z m3135 -22 c10 -11 13 -20 7 -20 -6 0 -16 9 -22 20 -6 11 -9 20 -7
20 2 0 12 -9 22 -20z m1208 0 c3 -11 1 -18 -4 -14 -5 3 -9 12 -9 20 0 20 7 17
13 -6z m-3252 -23 c-10 -9 -11 -8 -5 6 3 10 9 15 12 12 3 -3 0 -11 -7 -18z
m-3124 -49 c-3 -8 -6 -5 -6 6 -1 11 2 17 5 13 3 -3 4 -12 1 -19z m1788 -43
l17 -30 -31 33 c-17 18 -31 40 -31 49 0 19 8 9 45 -52z m419 -21 c9 -24 7 -28
-9 -14 -17 14 -20 30 -6 30 5 0 12 -7 15 -16z m851 -4 c-4 -6 -19 -10 -36 -10
-16 0 -29 -4 -29 -10 0 -5 -18 -13 -40 -16 -23 -4 -59 -20 -80 -35 -35 -26
-40 -27 -40 -11 0 23 35 57 77 74 37 16 157 22 148 8z m-1628 -6 c-3 -3 -12
-4 -19 -1 -8 3 -5 6 6 6 11 1 17 -2 13 -5z m652 -43 l10 -44 -26 25 c-22 22
-23 28 -12 46 16 26 16 26 28 -27z m-549 17 c10 -6 3 -7 -20 -2 -54 10 -83 25
-35 18 22 -4 47 -11 55 -16z m819 0 c-21 -18 -64 -23 -93 -12 -31 12 7 30 61
29 53 0 54 0 32 -17z m-625 -3 c4 -10 -1 -15 -14 -15 -20 0 -26 11 -13 23 10
11 20 8 27 -8z m117 -45 c5 0 9 -5 9 -11 0 -6 11 -25 25 -43 14 -18 25 -37 25
-41 0 -5 -18 17 -40 48 -22 30 -39 61 -39 69 1 7 3 5 6 -4 2 -10 9 -18 14 -18z
m2903 22 c2 -4 -7 -9 -22 -10 -21 -1 -24 0 -12 8 18 12 27 12 34 2z m687 -18
c24 -25 24 -26 5 -40 -32 -23 -32 -23 -52 49 -8 26 19 21 47 -9z m-3395 -16
c7 -10 -20 -38 -38 -38 -12 0 -10 24 4 38 15 15 25 15 34 0z m934 -22 c0 -25
-13 -53 -45 -98 -24 -35 -70 -100 -101 -145 -64 -94 -134 -163 -164 -163 -31
0 -60 18 -61 38 0 10 -3 12 -6 4 -2 -6 -9 -10 -14 -6 -15 9 -10 58 10 83 19
24 19 24 46 7 24 -16 31 -16 54 -5 14 7 30 12 34 10 5 -1 6 3 2 9 -6 10 129
193 187 254 15 17 28 33 28 38 0 4 7 8 15 8 10 0 15 -10 15 -34z m3407 12 c-3
-8 -6 -5 -6 6 -1 11 2 17 5 13 3 -3 4 -12 1 -19z m-4629 -65 c23 -8 42 -16 42
-18 0 -5 -123 -45 -127 -41 -2 2 -1 22 3 45 5 34 10 41 23 35 9 -3 35 -13 59
-21z m548 -5 l114 -12 0 -33 c0 -26 -5 -34 -22 -37 -217 -44 -249 -55 -261
-88 -2 -7 -8 -10 -12 -5 -10 8 -18 154 -11 174 7 16 45 16 192 1z m-980 -26
c-10 -2 -22 0 -28 6 -6 6 0 7 19 4 21 -5 23 -7 9 -10z m3909 8 c19 -8 19 -9
-2 -9 -12 -1 -25 4 -28 9 -7 12 2 12 30 0z m-3810 -18 c-3 -3 -11 0 -18 7 -9
10 -8 11 6 5 10 -3 15 -9 12 -12z m1138 11 c-7 -2 -19 -2 -25 0 -7 3 -2 5 12
5 14 0 19 -2 13 -5z m2911 -9 c21 -21 20 -37 -3 -58 -16 -14 -23 -15 -41 -6
-21 11 -21 39 2 68 14 16 23 15 42 -4z m-4064 -19 c25 -13 41 -24 35 -24 -5 0
-30 11 -55 24 -25 13 -40 24 -35 24 6 0 30 -11 55 -24z m75 -5 c17 -11 26 -20
20 -20 -5 0 -23 9 -40 20 -16 11 -25 20 -20 20 6 0 24 -9 40 -20z m3529 -32
c-7 -10 -34 -10 -34 0 0 4 5 13 12 20 9 9 14 9 19 0 4 -7 5 -16 3 -20z m-4589
14 c6 -4 28 -30 48 -59 90 -124 213 -203 348 -224 92 -14 113 -29 38 -29 -105
0 -193 35 -293 117 -75 61 -204 240 -141 195z m-401 -18 c3 -8 2 -12 -4 -9 -6
3 -10 10 -10 16 0 14 7 11 14 -7z m1511 6 c3 -5 1 -10 -4 -10 -6 0 -11 5 -11
10 0 6 2 10 4 10 3 0 8 -4 11 -10z m-479 -26 c-24 -17 -49 -17 -101 2 -22 7
-29 11 -15 9 85 -17 96 -17 109 -1 8 9 17 14 20 10 3 -3 -3 -12 -13 -20z m519
8 c-3 -3 -11 0 -18 7 -9 10 -8 11 6 5 10 -3 15 -9 12 -12z m2230 -12 c-20 -22
-31 -20 -22 5 4 8 14 15 23 15 16 0 16 -2 -1 -20z m-2100 -64 c28 -13 59 -26
69 -30 10 -3 17 -9 14 -12 -8 -7 -149 61 -178 86 l-25 22 35 -22 c19 -12 58
-32 85 -44z m1255 40 c0 -2 -7 -7 -16 -10 -8 -3 -12 -2 -9 4 6 10 25 14 25 6z
m1190 -10 c0 -2 -8 -10 -17 -17 -16 -13 -17 -12 -4 4 13 16 21 21 21 13z m830
-27 c0 -3 -11 -4 -25 -1 -24 4 -24 5 -8 17 17 13 32 5 33 -16z m70 -1 c0 -5
-4 -8 -10 -8 -5 0 -10 10 -10 23 0 18 2 19 10 7 5 -8 10 -18 10 -22z m1049 6
c10 -9 -45 -3 -59 6 -11 7 -5 8 20 4 19 -4 37 -8 39 -10z m-741 -6 c-6 -16
-55 -34 -65 -24 -10 10 26 36 50 36 10 0 17 -5 15 -12z m-5259 -61 c-2 -3 -15
10 -28 27 l-24 31 28 -27 c16 -15 27 -29 24 -31z m5166 43 c8 -13 -25 -13 -45
0 -12 8 -9 10 12 10 15 0 30 -4 33 -10z m762 -39 c48 -14 74 -27 77 -39 7 -22
-37 -156 -58 -178 -9 -8 -16 -11 -16 -5 0 5 6 16 14 24 15 15 -5 30 -190 140
-69 42 -104 74 -63 58 14 -5 73 -35 133 -66 115 -61 127 -61 129 -6 2 33 -15
47 -103 86 -42 18 -19 14 77 -14z m-6187 3 c0 -8 4 -13 9 -10 5 3 12 -1 15
-10 3 -8 10 -13 14 -10 5 3 18 -11 28 -32 11 -20 26 -37 32 -37 7 0 17 -7 23
-15 8 -13 11 -12 24 4 21 27 19 6 -2 -24 -17 -24 -17 -25 2 -10 11 8 23 20 27
25 12 16 9 -4 -4 -28 -11 -21 -10 -21 7 -7 11 9 16 10 11 3 -4 -8 -1 -13 8
-13 19 0 117 -120 109 -133 -3 -6 -1 -7 4 -4 6 4 39 -26 73 -66 35 -39 149
-157 254 -262 503 -499 1164 -1006 1846 -1416 243 -146 576 -329 600 -329 15
0 340 178 534 293 330 194 622 389 932 620 102 75 187 137 190 137 3 0 2 -6
-2 -12 -4 -8 -3 -10 2 -5 5 5 9 12 9 17 0 4 24 26 53 49 46 37 55 41 70 29 15
-11 15 -11 5 3 -11 13 -9 19 7 34 11 10 20 14 20 9 0 -5 4 -4 8 1 4 6 20 19
35 29 28 17 29 17 44 -1 8 -10 12 -12 8 -6 -4 9 3 11 27 6 18 -3 38 -10 44
-14 6 -5 14 -6 17 -2 4 3 7 4 7 0 0 -3 -26 -25 -57 -49 -55 -42 -74 -48 -150
-52 -13 -1 -23 -4 -23 -8 0 -8 18 -12 35 -8 6 1 17 3 25 3 8 0 22 4 30 9 44
29 -81 -76 -180 -152 -471 -357 -1002 -690 -1598 -1003 l-96 -50 -85 43 c-331
163 -921 520 -1300 786 -776 544 -1302 1043 -1624 1541 -80 122 -91 143 -77
143 5 0 10 -7 10 -16z m1143 2 l48 -12 -39 -18 c-54 -24 -86 -19 -90 17 -4 31
6 33 81 13z m847 -18 c0 -6 -6 -5 -15 2 -8 7 -15 14 -15 16 0 2 7 1 15 -2 8
-4 15 -11 15 -16z m341 -19 l37 -40 40 26 c59 39 95 41 192 10 47 -14 95 -30
107 -35 18 -8 21 -6 16 8 -3 9 3 5 15 -9 12 -15 35 -32 52 -39 35 -14 38 -25
11 -40 -25 -13 -41 -13 -21 0 12 8 10 10 -10 10 -14 0 -36 3 -50 6 -20 4 -22
3 -10 -5 19 -14 16 -14 -109 5 -116 17 -299 60 -317 75 -10 8 -11 27 -5 62 2
14 15 6 52 -34z m1909 37 c0 -2 -8 -10 -17 -17 -16 -13 -17 -12 -4 4 13 16 21
21 21 13z m-2045 -65 c52 -25 23 -26 -35 -1 -26 11 -37 19 -25 19 11 0 38 -8
60 -18z m1251 -29 c-18 -35 -52 -62 -79 -62 -10 0 -16 -3 -14 -7 3 -5 -8 -8
-24 -9 l-30 -1 31 19 c17 10 36 15 42 12 6 -4 8 -3 4 4 -6 10 73 86 81 78 3
-2 -3 -18 -11 -34z m-1459 22 c-3 -3 -12 -4 -19 -1 -8 3 -5 6 6 6 11 1 17 -2
13 -5z m2263 -56 c26 -98 45 -158 76 -242 27 -73 29 -85 13 -67 -11 11 -23 21
-27 21 -5 0 -16 24 -27 53 -10 28 -21 57 -25 62 -4 6 -17 42 -30 80 -12 39
-25 73 -29 77 -3 4 -44 -6 -91 -22 -87 -30 -215 -55 -355 -71 -44 -5 -88 -14
-97 -19 -21 -12 -22 -9 -7 24 10 22 17 24 78 23 49 0 81 6 126 25 33 14 97 31
143 37 45 7 111 23 145 36 87 34 94 33 107 -17z m231 5 c-12 -20 -14 -14 -5
12 4 9 9 14 11 11 3 -2 0 -13 -6 -23z m-3384 -9 c-3 -3 -12 -4 -19 -1 -8 3 -5
6 6 6 11 1 17 -2 13 -5z m4971 -95 c53 -30 92 -60 92 -69 0 -25 -34 -73 -94
-134 -52 -52 -61 -57 -94 -54 -33 3 -41 10 -82 71 -63 94 -114 188 -98 182 7
-3 38 -39 68 -80 30 -40 56 -72 58 -70 2 2 -3 14 -11 26 -15 21 -14 24 25 70
23 27 49 49 60 49 36 0 19 27 -39 64 -50 31 -59 47 -10 18 17 -10 74 -43 125
-73z m-1558 51 c0 -5 -2 -10 -4 -10 -3 0 -8 5 -11 10 -3 6 -1 10 4 10 6 0 11
-4 11 -10z m29 -75 c0 -5 -6 1 -14 15 -8 14 -14 30 -14 35 0 6 6 -1 14 -15 8
-14 14 -29 14 -35z m-1274 22 c28 0 65 2 83 6 25 5 32 3 32 -9 0 -8 7 -29 16
-45 l16 -31 -39 5 c-56 8 -180 43 -238 67 l-50 21 65 -7 c36 -4 88 -7 115 -7z
m1388 -227 c59 -80 151 -167 242 -231 102 -72 160 -101 265 -132 119 -36 189
-47 301 -47 278 0 506 95 728 304 44 42 66 58 53 39 -12 -17 -46 -53 -75 -79
-155 -140 -312 -223 -487 -258 -296 -57 -555 -6 -798 159 -137 93 -306 301
-336 415 -4 14 9 -6 29 -45 20 -38 55 -95 78 -125z m1123 -2 c34 -55 54 -96
52 -110 -3 -22 -73 -71 -92 -65 -9 3 -57 129 -51 135 2 2 15 -18 29 -45 14
-26 25 -42 26 -35 0 7 4 11 9 8 4 -3 15 0 24 7 15 11 15 15 -3 52 -11 22 -34
63 -51 90 -18 28 -35 64 -40 80 l-8 30 24 -30 c14 -16 50 -69 81 -117z m-617
58 c-35 -54 -69 -114 -69 -126 0 -17 190 -91 256 -100 3 0 14 146 16 203 1 32
5 60 8 62 19 12 28 -223 10 -269 -12 -32 -38 -33 -139 -6 -148 41 -212 87
-185 132 4 7 32 51 63 97 43 66 56 80 61 65 4 -11 -3 -33 -21 -58z m373 7 c1
-27 2 -59 3 -73 1 -14 2 -53 3 -87 2 -59 4 -63 25 -63 13 0 44 6 70 14 45 13
45 13 52 -12 9 -35 -7 -42 -93 -42 -69 0 -73 1 -82 26 -19 48 -9 284 11 284 5
0 10 -21 11 -47z m-759 -138 l59 -70 -66 67 c-36 37 -72 82 -81 100 l-16 33
23 -30 c13 -16 49 -61 81 -100z m-1023 44 c0 -6 -6 -9 -14 -6 -7 3 -19 0 -26
-6 -10 -9 -11 -9 -5 2 6 10 2 12 -14 6 -12 -4 -21 -2 -21 4 0 6 18 11 40 11
23 0 40 -5 40 -11z m1919 -82 c1 -5 -3 -5 -9 -2 -5 3 -10 16 -9 28 0 21 1 21
9 2 5 -11 9 -24 9 -28z m-2289 -3 c0 -2 -9 -4 -21 -4 -11 0 -18 4 -14 10 5 8
35 3 35 -6z m1189 -28 c-3 -3 -11 5 -18 17 -13 21 -12 21 5 5 10 -10 16 -20
13 -22z m1346 24 c-3 -5 -12 -10 -18 -10 -7 0 -6 4 3 10 19 12 23 12 15 0z
m-940 -123 c22 -21 -59 30 -88 56 -23 20 -17 18 23 -9 30 -21 60 -42 65 -47z
m-1708 -83 c-3 -3 -12 -4 -19 -1 -8 3 -5 6 6 6 11 1 17 -2 13 -5z m111 -8 c3
-3 -18 -6 -47 -6 -29 0 -50 4 -47 9 6 9 84 6 94 -3z m-1946 -160 c21 -23 38
-45 38 -49 0 -4 -31 27 -70 70 -38 43 -70 81 -70 86 0 4 15 -9 33 -30 17 -20
49 -55 69 -77z m137 -39 c25 -27 82 -76 126 -110 44 -33 95 -74 114 -90 30
-26 31 -28 10 -22 -26 8 -31 11 -95 65 -23 19 -63 53 -90 75 -96 79 -146 130
-164 167 -25 52 -13 55 23 5 16 -23 50 -64 76 -90z m994 -47 c-2 -5 3 -10 10
-10 8 0 24 -12 38 -27 13 -14 18 -23 11 -19 -7 4 -25 9 -40 11 -15 2 -54 11
-87 19 -32 9 -69 16 -81 16 -28 0 -55 10 -50 19 7 11 201 2 199 -9z m133 -78
c18 -25 34 -55 34 -68 0 -12 4 -25 9 -28 4 -3 11 -24 15 -47 12 -76 40 -115
116 -159 101 -59 120 -88 120 -183 0 -67 3 -78 22 -91 26 -19 42 -21 32 -5 -5
8 -2 9 12 1 46 -26 92 49 74 118 -6 22 -14 40 -19 40 -4 0 -4 26 0 57 4 31 5
61 2 66 -3 6 -1 7 5 3 7 -4 12 -5 12 -2 0 2 3 12 7 22 4 12 3 15 -5 10 -14 -9
-15 3 -2 24 5 9 5 17 -1 20 -17 11 20 80 54 100 42 26 56 12 34 -35 -9 -19
-25 -52 -34 -72 -10 -20 -18 -56 -17 -81 1 -36 7 -49 34 -75 18 -18 29 -25 25
-17 -7 12 -4 11 11 -2 10 -9 33 -18 49 -20 22 -2 30 -8 31 -23 1 -11 2 -37 3
-58 2 -58 18 -35 23 32 3 47 11 70 38 110 19 27 38 47 42 45 4 -3 8 -27 8 -54
0 -37 6 -56 23 -76 22 -25 26 -26 60 -15 21 7 52 30 72 53 31 36 35 39 42 22
15 -40 32 -48 71 -34 21 7 49 23 63 37 22 20 28 22 38 10 9 -12 -2 -24 -66
-65 -154 -98 -264 -162 -462 -267 l-201 -107 -112 60 c-257 136 -512 282 -505
289 2 1 19 -2 38 -7 19 -6 57 -9 85 -8 49 3 50 4 52 35 2 24 -3 35 -18 43 -12
6 -19 17 -17 25 3 7 0 18 -6 25 -9 10 -7 11 13 5 49 -15 83 -48 112 -112 33
-73 49 -78 85 -24 31 46 29 80 -10 138 -36 53 -53 106 -61 190 -5 50 -19 80
-81 174 -23 35 -23 37 -4 32 11 -3 36 -26 55 -51z m1210 -209 c-16 -117 -18
-124 -52 -149 -34 -27 -65 -25 -43 2 6 8 9 17 6 21 -4 3 3 16 16 28 12 11 23
28 25 36 2 7 8 19 15 24 7 6 12 15 13 20 2 18 16 55 21 55 3 0 2 -17 -1 -37z
m-1901 -108 c83 -55 158 -104 167 -110 10 -5 42 -26 70 -46 29 -19 78 -51 108
-70 30 -20 93 -60 140 -90 47 -31 114 -72 150 -93 36 -21 94 -55 130 -77 171
-104 301 -170 319 -164 11 3 35 16 54 29 18 13 58 37 88 53 30 17 92 53 139
81 47 28 117 68 155 90 60 33 295 183 603 384 119 78 160 102 142 85 -8 -8
-112 -80 -230 -159 -259 -175 -520 -337 -895 -555 l-70 -41 -45 26 c-376 215
-722 432 -1030 645 -228 158 -225 165 5 12z m1077 23 c-4 -4 -9 7 -9 25 -2 30
-2 31 8 8 5 -14 6 -28 1 -33z m-62 9 c15 4 18 1 15 -16 -2 -11 2 -27 9 -34 7
-7 16 -22 20 -34 6 -18 3 -21 -19 -19 -14 2 -27 5 -28 7 -27 48 -37 78 -31 94
4 10 9 14 11 8 2 -6 13 -9 23 -6z"/>
<path d="M4589 6299 c-7 -38 -7 -49 2 -54 6 -4 9 0 7 11 -2 10 2 19 9 19 6 0
15 5 20 10 4 6 4 7 -1 3 -5 -4 -15 -3 -23 3 -7 6 -13 10 -14 8z"/>
<path d="M4270 6106 c0 -2 7 -6 15 -10 8 -3 15 -1 15 4 0 6 -7 10 -15 10 -8 0
-15 -2 -15 -4z"/>
<path d="M3965 6030 c-3 -5 -1 -10 4 -10 6 0 11 5 11 10 0 6 -2 10 -4 10 -3 0
-8 -4 -11 -10z"/>
<path d="M4280 6005 c0 -2 6 -8 13 -14 10 -8 14 -7 14 2 0 8 -6 14 -14 14 -7
0 -13 -1 -13 -2z"/>
<path d="M4163 5973 c0 -9 4 -10 14 -2 7 6 13 12 13 14 0 1 -6 2 -13 2 -8 0
-14 -6 -14 -14z"/>
<path d="M3273 7234 c-64 -109 -75 -134 -61 -134 17 0 113 26 126 33 5 4 5 30
-1 68 -16 109 -18 110 -64 33z"/>
<path d="M6690 6465 c-7 -9 -11 -18 -8 -20 3 -3 11 1 18 10 7 9 11 18 8 20 -3
3 -11 -1 -18 -10z"/>
<path d="M5905 6220 c3 -5 8 -10 11 -10 2 0 4 5 4 10 0 6 -5 10 -11 10 -5 0
-7 -4 -4 -10z"/>
<path d="M5880 6206 c0 -2 7 -7 16 -10 8 -3 12 -2 9 4 -6 10 -25 14 -25 6z"/>
<path d="M6475 6056 c-19 -13 -18 -14 5 -9 21 4 29 -2 48 -34 17 -27 21 -31
17 -13 -4 14 -17 35 -29 48 -19 20 -24 21 -41 8z"/>
<path d="M6442 5855 c9 -10 21 -16 28 -13 7 2 -1 10 -16 17 -27 12 -28 11 -12
-4z"/>
<path d="M4888 5773 c6 -2 18 -2 25 0 6 3 1 5 -13 5 -14 0 -19 -2 -12 -5z"/>
<path d="M4733 5763 c15 -2 39 -2 55 0 15 2 2 4 -28 4 -30 0 -43 -2 -27 -4z"/>
<path d="M4518 5743 c7 -3 16 -2 19 1 4 3 -2 6 -13 5 -11 0 -14 -3 -6 -6z"/>
<path d="M3884 5108 c-3 -4 21 -7 53 -7 60 1 56 5 -10 11 -21 2 -40 0 -43 -4z"/>
<path d="M4550 5162 c0 -13 23 -32 38 -32 7 0 10 4 7 10 -9 14 -45 32 -45 22z"/>
<path d="M2566 4685 c-9 -26 -7 -32 5 -12 6 10 9 21 6 23 -2 3 -7 -2 -11 -11z"/>
<path d="M7600 4390 c0 -5 5 -10 11 -10 5 0 7 5 4 10 -3 6 -8 10 -11 10 -2 0
-4 -4 -4 -10z"/>
<path d="M7540 4360 c0 -5 9 -10 20 -10 11 0 20 5 20 10 0 6 -9 10 -20 10 -11
0 -20 -4 -20 -10z"/>
<path d="M7570 4316 c0 -2 7 -7 16 -10 8 -3 12 -2 9 4 -6 10 -25 14 -25 6z"/>
<path d="M7875 4051 c-3 -5 -1 -12 5 -16 5 -3 10 1 10 9 0 18 -6 21 -15 7z"/>
<path d="M7790 4030 c0 -5 7 -10 16 -10 8 0 12 5 9 10 -3 6 -10 10 -16 10 -5
0 -9 -4 -9 -10z"/>
<path d="M7787 4004 c-1 -1 0 -25 2 -54 3 -49 4 -51 30 -48 22 3 26 8 29 42 2
21 -1 43 -7 49 -10 10 -47 17 -54 11z"/>
<path d="M7925 3940 c-3 -5 -1 -10 4 -10 6 0 11 5 11 10 0 6 -2 10 -4 10 -3 0
-8 -4 -11 -10z"/>
<path d="M7896 3783 c-6 -14 -5 -15 5 -6 7 7 10 15 7 18 -3 3 -9 -2 -12 -12z"/>
<path d="M7810 3715 c-17 -18 -27 -22 -35 -15 -9 8 -14 3 -17 -18 -4 -29 -4
-29 23 -13 15 8 25 19 23 23 -2 3 6 14 18 22 12 9 19 18 17 21 -3 3 -16 -6
-29 -20z"/>
<path d="M7070 3716 c0 -2 6 -9 14 -15 10 -9 15 -8 20 4 4 10 -1 15 -14 15
-11 0 -20 -2 -20 -4z"/>
<path d="M7832 3694 c-7 -8 -8 -14 -3 -14 10 0 25 19 20 25 -2 1 -10 -3 -17
-11z"/>
<path d="M7240 3682 c0 -5 7 -16 16 -23 14 -12 16 -11 13 5 -4 20 -29 35 -29
18z"/>
<path d="M7682 3674 c-12 -8 -22 -19 -22 -25 0 -15 27 -10 34 6 3 8 12 15 21
15 8 0 15 5 15 10 0 15 -22 12 -48 -6z"/>
<path d="M7300 3630 c0 -5 5 -10 10 -10 6 0 10 5 10 10 0 6 -4 10 -10 10 -5 0
-10 -4 -10 -10z"/>
<path d="M7777 3634 c-11 -11 3 -24 18 -18 8 4 12 10 9 15 -6 11 -18 12 -27 3z"/>
<path d="M7360 3611 c0 -5 7 -14 15 -21 13 -10 15 -9 15 9 0 12 -6 21 -15 21
-8 0 -15 -4 -15 -9z"/>
<path d="M7566 3611 c-3 -5 0 -14 8 -20 11 -9 15 -8 20 5 3 8 6 18 6 20 0 8
-29 4 -34 -5z"/>
<path d="M7640 3600 c0 -5 5 -10 10 -10 6 0 10 5 10 10 0 6 -4 10 -10 10 -5 0
-10 -4 -10 -10z"/>
<path d="M7597 3550 c3 -11 7 -20 9 -20 2 0 4 9 4 20 0 11 -4 20 -9 20 -5 0
-7 -9 -4 -20z"/>
<path d="M7650 3555 c0 -8 5 -15 10 -15 6 0 10 7 10 15 0 8 -4 15 -10 15 -5 0
-10 -7 -10 -15z"/>
<path d="M7380 3556 c0 -2 7 -7 16 -10 8 -3 12 -2 9 4 -6 10 -25 14 -25 6z"/>
<path d="M7400 3500 c0 -5 5 -10 10 -10 6 0 10 5 10 10 0 6 -4 10 -10 10 -5 0
-10 -4 -10 -10z"/>
<path d="M8467 4563 c-10 -10 -8 -23 4 -23 5 0 8 4 5 9 -4 5 0 12 6 14 7 3 8
6 2 6 -6 1 -14 -2 -17 -6z"/>
<path d="M8020 4310 c-9 -6 -10 -10 -3 -10 6 0 15 5 18 10 8 12 4 12 -15 0z"/>
<path d="M3977 4412 c-4 -5 -1 -13 5 -15 10 -4 10 -8 1 -14 -8 -6 -4 -12 13
-20 19 -9 24 -8 24 2 0 21 -36 60 -43 47z"/>
<path d="M4856 4357 c3 -10 9 -15 12 -12 3 3 0 11 -7 18 -10 9 -11 8 -5 -6z"/>
<path d="M2536 4214 c-20 -19 -20 -19 -1 -38 15 -15 45 -12 45 5 0 4 -7 6 -15
3 -10 -4 -15 0 -15 11 0 12 5 15 16 11 14 -5 15 -4 4 9 -15 19 -15 19 -34 -1z"/>
<path d="M2673 4185 c-26 -18 -28 -33 -12 -68 13 -29 36 -41 129 -66 82 -23
98 -16 110 46 l7 41 -72 27 c-97 35 -135 40 -162 20z"/>
<path d="M2956 4088 c-35 -49 -10 -85 80 -117 97 -33 134 -26 134 29 -1 41
-23 59 -105 85 -94 30 -90 30 -109 3z"/>
<path d="M2721 4026 c4 -4 42 -20 85 -36 43 -16 71 -23 63 -16 -8 8 -39 22
-69 31 -30 10 -62 20 -70 23 -8 3 -12 2 -9 -2z"/>
<path d="M3217 3993 c-4 -3 -7 -13 -7 -22 1 -13 2 -13 11 2 6 9 14 15 20 12
15 -10 10 -33 -8 -38 -17 -4 -17 -4 0 -12 28 -12 43 9 29 40 -11 24 -31 32
-45 18z"/>
<path d="M5069 3894 c-23 -31 -50 -65 -60 -75 -11 -11 -15 -19 -10 -19 11 0
107 104 122 131 22 41 -12 17 -52 -37z"/>
<path d="M4896 3701 c-4 -5 3 -7 14 -4 23 6 26 13 6 13 -8 0 -17 -4 -20 -9z"/>
<path d="M4890 3676 c0 -2 7 -7 16 -10 8 -3 12 -2 9 4 -6 10 -25 14 -25 6z"/>
<path d="M2265 3550 c10 -11 20 -20 23 -20 3 0 -3 9 -13 20 -10 11 -20 20 -23
20 -3 0 3 -9 13 -20z"/>
<path d="M7062 2544 c-12 -8 -22 -21 -22 -27 0 -7 5 -4 11 6 6 9 15 15 20 11
6 -4 5 -12 -3 -22 -10 -14 -10 -15 2 -5 10 10 23 53 16 53 -1 0 -12 -7 -24
-16z"/>
<path d="M6876 2453 c-11 -11 -7 -20 9 -20 8 0 15 4 15 8 0 11 -16 20 -24 12z"/>
<path d="M8118 3437 c-13 -18 -31 -44 -41 -59 -19 -30 -70 -61 -82 -50 -4 4
-1 -3 6 -15 8 -13 18 -23 23 -23 10 0 105 102 129 140 15 23 15 29 3 33 -9 4
-24 -7 -38 -26z"/>
<path d="M5799 2223 c-13 -16 -12 -17 4 -4 16 13 21 21 13 21 -2 0 -10 -8 -17
-17z"/>
<path d="M7871 7884 c-11 -14 -30 -51 -41 -82 -18 -48 -20 -69 -15 -138 5 -56
4 -84 -4 -88 -6 -4 -11 -11 -11 -15 0 -11 46 -31 70 -31 22 0 22 3 24 96 1 51
-2 60 -14 56 -12 -5 -13 -3 -3 10 7 8 10 18 7 21 -15 14 -11 95 6 145 20 57
13 67 -19 26z"/>
<path d="M7631 7646 c-13 -16 -12 -17 41 -39 l38 -16 -15 28 c-8 16 -22 31
-30 35 -22 8 -21 8 -34 -8z"/>
<path d="M7900 7610 c0 -5 5 -12 10 -15 6 -4 8 -10 6 -14 -3 -4 1 -8 8 -8 21
0 14 43 -6 44 -10 1 -18 -2 -18 -7z"/>
<path d="M8677 5260 c-3 -8 -15 -76 -26 -150 -12 -74 -36 -199 -55 -277 l-33
-142 39 -47 c21 -26 46 -60 55 -75 16 -26 33 -38 33 -23 0 3 5 35 10 72 18
120 28 345 19 442 -9 105 -34 223 -42 200z"/>
</g>
</svg>
